<?xml version="1.0" encoding="UTF-8" standalone="no"?>
<!DOCTYPE svg PUBLIC "-//W3C//DTD SVG 1.1//EN"
 "http://www.w3.org/Graphics/SVG/1.1/DTD/svg11.dtd">
<!-- Generated by graphviz version 2.43.0 (0)
 -->
<!-- Title: finite_state_machine Pages: 1 -->
<svg width="905pt" height="297pt"
 viewBox="0.00 0.00 904.79 297.00" xmlns="http://www.w3.org/2000/svg" xmlns:xlink="http://www.w3.org/1999/xlink">
<g id="graph0" class="graph" transform="scale(1 1) rotate(0) translate(4 293)">
<title>finite_state_machine</title>
<polygon fill="white" stroke="transparent" points="-4,4 -4,-293 900.79,-293 900.79,4 -4,4"/>
<!-- 0 -->
<g id="node1" class="node">
<title>0</title>
<ellipse fill="none" stroke="black" cx="22" cy="-67" rx="18" ry="18"/>
<ellipse fill="none" stroke="black" cx="22" cy="-67" rx="22" ry="22"/>
<text text-anchor="middle" x="22" y="-63.3" font-family="Helvetica,Arial,sans-serif" font-size="14.00">0</text>
</g>
<!-- 2 -->
<g id="node9" class="node">
<title>2</title>
<ellipse fill="none" stroke="black" cx="106" cy="-191" rx="18" ry="18"/>
<text text-anchor="middle" x="106" y="-187.3" font-family="Helvetica,Arial,sans-serif" font-size="14.00">2</text>
</g>
<!-- 0&#45;&gt;2 -->
<g id="edge13" class="edge">
<title>0&#45;&gt;2</title>
<path fill="none" stroke="black" d="M34.92,-85.03C49.42,-106.95 73.9,-143.97 89.75,-167.94"/>
<polygon fill="black" stroke="black" points="86.93,-170.02 95.37,-176.43 92.77,-166.16 86.93,-170.02"/>
<text text-anchor="middle" x="66" y="-140.8" font-family="Helvetica,Arial,sans-serif" font-size="14.00">2</text>
</g>
<!-- 1 -->
<g id="node10" class="node">
<title>1</title>
<ellipse fill="none" stroke="black" cx="106" cy="-126" rx="18" ry="18"/>
<text text-anchor="middle" x="106" y="-122.3" font-family="Helvetica,Arial,sans-serif" font-size="14.00">1</text>
</g>
<!-- 0&#45;&gt;1 -->
<g id="edge12" class="edge">
<title>0&#45;&gt;1</title>
<path fill="none" stroke="black" d="M40.39,-79.51C52.73,-88.39 69.4,-100.39 82.72,-109.97"/>
<polygon fill="black" stroke="black" points="80.74,-112.86 90.9,-115.86 84.83,-107.18 80.74,-112.86"/>
<text text-anchor="middle" x="66" y="-104.8" font-family="Helvetica,Arial,sans-serif" font-size="14.00">4</text>
</g>
<!-- 3 -->
<g id="node13" class="node">
<title>3</title>
<ellipse fill="none" stroke="black" cx="713.19" cy="-91" rx="18" ry="18"/>
<text text-anchor="middle" x="713.19" y="-87.3" font-family="Helvetica,Arial,sans-serif" font-size="14.00">3</text>
</g>
<!-- 0&#45;&gt;3 -->
<g id="edge14" class="edge">
<title>0&#45;&gt;3</title>
<path fill="none" stroke="black" d="M43.34,-60.77C59.81,-56.28 83.68,-51 105,-51 105,-51 105,-51 634.19,-51 655.18,-51 676.2,-62.61 691.12,-73.32"/>
<polygon fill="black" stroke="black" points="689.07,-76.16 699.15,-79.43 693.31,-70.59 689.07,-76.16"/>
<text text-anchor="middle" x="380.8" y="-54.8" font-family="Helvetica,Arial,sans-serif" font-size="14.00">0</text>
</g>
<!-- 12 -->
<g id="node2" class="node">
<title>12</title>
<ellipse fill="none" stroke="black" cx="380.8" cy="-236" rx="20.63" ry="20.63"/>
<ellipse fill="none" stroke="black" cx="380.8" cy="-236" rx="24.6" ry="24.6"/>
<text text-anchor="middle" x="380.8" y="-232.3" font-family="Helvetica,Arial,sans-serif" font-size="14.00">12</text>
</g>
<!-- 10 -->
<g id="node4" class="node">
<title>10</title>
<ellipse fill="none" stroke="black" cx="470.39" cy="-213" rx="20.6" ry="20.6"/>
<text text-anchor="middle" x="470.39" y="-209.3" font-family="Helvetica,Arial,sans-serif" font-size="14.00">10</text>
</g>
<!-- 12&#45;&gt;10 -->
<g id="edge24" class="edge">
<title>12&#45;&gt;10</title>
<path fill="none" stroke="black" d="M401.77,-222.35C408.42,-218.55 416.06,-214.94 423.6,-213 428.53,-211.73 433.87,-211.1 439.1,-210.86"/>
<polygon fill="black" stroke="black" points="439.51,-214.36 449.51,-210.86 439.51,-207.36 439.51,-214.36"/>
<text text-anchor="middle" x="427.6" y="-216.8" font-family="Helvetica,Arial,sans-serif" font-size="14.00">2</text>
</g>
<!-- 7 -->
<g id="node3" class="node">
<title>7</title>
<ellipse fill="none" stroke="black" cx="294" cy="-236" rx="18" ry="18"/>
<text text-anchor="middle" x="294" y="-232.3" font-family="Helvetica,Arial,sans-serif" font-size="14.00">7</text>
</g>
<!-- 7&#45;&gt;12 -->
<g id="edge2" class="edge">
<title>7&#45;&gt;12</title>
<path fill="none" stroke="black" d="M312.16,-236C321.79,-236 334.16,-236 345.68,-236"/>
<polygon fill="black" stroke="black" points="345.92,-239.5 355.92,-236 345.92,-232.5 345.92,-239.5"/>
<text text-anchor="middle" x="334" y="-239.8" font-family="Helvetica,Arial,sans-serif" font-size="14.00">2</text>
</g>
<!-- 7&#45;&gt;10 -->
<g id="edge1" class="edge">
<title>7&#45;&gt;10</title>
<path fill="none" stroke="black" d="M309.14,-246.64C320.96,-254.83 338.63,-265.49 356,-270 377.33,-275.54 384.56,-276.57 405.6,-270 423.68,-264.35 439.58,-250.19 450.98,-237.39"/>
<polygon fill="black" stroke="black" points="453.7,-239.59 457.48,-229.69 448.36,-235.07 453.7,-239.59"/>
<text text-anchor="middle" x="380.8" y="-277.8" font-family="Helvetica,Arial,sans-serif" font-size="14.00">1</text>
</g>
<!-- 10&#45;&gt;12 -->
<g id="edge23" class="edge">
<title>10&#45;&gt;12</title>
<path fill="none" stroke="black" d="M452.27,-223.36C445.98,-226.69 438.67,-230.02 431.6,-232 426.56,-233.41 421.13,-234.38 415.77,-235.03"/>
<polygon fill="black" stroke="black" points="415.33,-231.56 405.68,-235.94 415.96,-238.53 415.33,-231.56"/>
<text text-anchor="middle" x="427.6" y="-236.8" font-family="Helvetica,Arial,sans-serif" font-size="14.00">4</text>
</g>
<!-- 9 -->
<g id="node7" class="node">
<title>9</title>
<ellipse fill="none" stroke="black" cx="553.19" cy="-175" rx="18" ry="18"/>
<text text-anchor="middle" x="553.19" y="-171.3" font-family="Helvetica,Arial,sans-serif" font-size="14.00">9</text>
</g>
<!-- 10&#45;&gt;9 -->
<g id="edge22" class="edge">
<title>10&#45;&gt;9</title>
<path fill="none" stroke="black" d="M482.41,-195.38C488.99,-186.59 498.2,-176.82 509.19,-172 514.2,-169.8 519.86,-169.11 525.39,-169.23"/>
<polygon fill="black" stroke="black" points="525.33,-172.75 535.64,-170.31 526.06,-165.78 525.33,-172.75"/>
<text text-anchor="middle" x="513.19" y="-175.8" font-family="Helvetica,Arial,sans-serif" font-size="14.00">2</text>
</g>
<!-- 5 -->
<g id="node5" class="node">
<title>5</title>
<ellipse fill="none" stroke="black" cx="186" cy="-211" rx="18" ry="18"/>
<text text-anchor="middle" x="186" y="-207.3" font-family="Helvetica,Arial,sans-serif" font-size="14.00">5</text>
</g>
<!-- 5&#45;&gt;7 -->
<g id="edge3" class="edge">
<title>5&#45;&gt;7</title>
<path fill="none" stroke="black" d="M204.03,-215.02C220.9,-218.99 246.97,-225.14 266.53,-229.76"/>
<polygon fill="black" stroke="black" points="265.82,-233.19 276.36,-232.08 267.43,-226.37 265.82,-233.19"/>
<text text-anchor="middle" x="240" y="-230.8" font-family="Helvetica,Arial,sans-serif" font-size="14.00">1</text>
</g>
<!-- 5&#45;&gt;10 -->
<g id="edge4" class="edge">
<title>5&#45;&gt;10</title>
<path fill="none" stroke="black" d="M204.04,-208.84C240.88,-204.48 330.66,-195.59 405.6,-202 416.85,-202.96 429.1,-204.87 439.83,-206.82"/>
<polygon fill="black" stroke="black" points="439.48,-210.32 449.96,-208.76 440.8,-203.44 439.48,-210.32"/>
<text text-anchor="middle" x="334" y="-202.8" font-family="Helvetica,Arial,sans-serif" font-size="14.00">1</text>
</g>
<!-- 11 -->
<g id="node6" class="node">
<title>11</title>
<ellipse fill="none" stroke="black" cx="875.99" cy="-180" rx="20.6" ry="20.6"/>
<text text-anchor="middle" x="875.99" y="-176.3" font-family="Helvetica,Arial,sans-serif" font-size="14.00">11</text>
</g>
<!-- 11&#45;&gt;9 -->
<g id="edge5" class="edge">
<title>11&#45;&gt;9</title>
<path fill="none" stroke="black" d="M856.8,-188.3C840.69,-194.89 816.36,-203 794.19,-203 632.19,-203 632.19,-203 632.19,-203 613.31,-203 593.29,-195.64 578.25,-188.47"/>
<polygon fill="black" stroke="black" points="579.66,-185.26 569.16,-183.86 576.5,-191.5 579.66,-185.26"/>
<text text-anchor="middle" x="713.19" y="-206.8" font-family="Helvetica,Arial,sans-serif" font-size="14.00">2</text>
</g>
<!-- 9&#45;&gt;10 -->
<g id="edge21" class="edge">
<title>9&#45;&gt;10</title>
<path fill="none" stroke="black" d="M536.65,-182.31C525.97,-187.33 511.5,-194.14 498.91,-200.06"/>
<polygon fill="black" stroke="black" points="497.29,-196.95 489.73,-204.38 500.27,-203.29 497.29,-196.95"/>
<text text-anchor="middle" x="513.19" y="-198.8" font-family="Helvetica,Arial,sans-serif" font-size="14.00">2</text>
</g>
<!-- 6 -->
<g id="node11" class="node">
<title>6</title>
<ellipse fill="none" stroke="black" cx="633.19" cy="-129" rx="18" ry="18"/>
<text text-anchor="middle" x="633.19" y="-125.3" font-family="Helvetica,Arial,sans-serif" font-size="14.00">6</text>
</g>
<!-- 9&#45;&gt;6 -->
<g id="edge20" class="edge">
<title>9&#45;&gt;6</title>
<path fill="none" stroke="black" d="M569.43,-166.75C577.7,-162.21 588.07,-156.41 597.19,-151 601.01,-148.74 605.03,-146.28 608.93,-143.86"/>
<polygon fill="black" stroke="black" points="611.05,-146.66 617.65,-138.38 607.32,-140.73 611.05,-146.66"/>
<text text-anchor="middle" x="593.19" y="-159.8" font-family="Helvetica,Arial,sans-serif" font-size="14.00">2</text>
</g>
<!-- 8 -->
<g id="node8" class="node">
<title>8</title>
<ellipse fill="none" stroke="black" cx="793.19" cy="-142" rx="18" ry="18"/>
<text text-anchor="middle" x="793.19" y="-138.3" font-family="Helvetica,Arial,sans-serif" font-size="14.00">8</text>
</g>
<!-- 8&#45;&gt;11 -->
<g id="edge6" class="edge">
<title>8&#45;&gt;11</title>
<path fill="none" stroke="black" d="M809.77,-149.33C820.51,-154.38 835.08,-161.23 847.72,-167.18"/>
<polygon fill="black" stroke="black" points="846.38,-170.41 856.92,-171.5 849.36,-164.08 846.38,-170.41"/>
<text text-anchor="middle" x="833.19" y="-166.8" font-family="Helvetica,Arial,sans-serif" font-size="14.00">2</text>
</g>
<!-- 2&#45;&gt;5 -->
<g id="edge7" class="edge">
<title>2&#45;&gt;5</title>
<path fill="none" stroke="black" d="M123.54,-195.24C133.68,-197.84 146.88,-201.23 158.45,-204.19"/>
<polygon fill="black" stroke="black" points="157.93,-207.67 168.48,-206.76 159.66,-200.89 157.93,-207.67"/>
<text text-anchor="middle" x="146" y="-204.8" font-family="Helvetica,Arial,sans-serif" font-size="14.00">2</text>
</g>
<!-- 1&#45;&gt;5 -->
<g id="edge8" class="edge">
<title>1&#45;&gt;5</title>
<path fill="none" stroke="black" d="M118.85,-138.91C131.33,-152.51 151.18,-174.15 165.89,-190.17"/>
<polygon fill="black" stroke="black" points="163.7,-192.97 173.04,-197.97 168.86,-188.23 163.7,-192.97"/>
<text text-anchor="middle" x="146" y="-175.8" font-family="Helvetica,Arial,sans-serif" font-size="14.00">2</text>
</g>
<!-- 1&#45;&gt;6 -->
<g id="edge9" class="edge">
<title>1&#45;&gt;6</title>
<path fill="none" stroke="black" d="M122.41,-118.27C137.84,-111.26 162.47,-102 185,-102 185,-102 185,-102 554.19,-102 573,-102 593.03,-109.1 608.08,-116.01"/>
<polygon fill="black" stroke="black" points="606.66,-119.22 617.19,-120.46 609.73,-112.93 606.66,-119.22"/>
<text text-anchor="middle" x="380.8" y="-105.8" font-family="Helvetica,Arial,sans-serif" font-size="14.00">2</text>
</g>
<!-- 4 -->
<g id="node12" class="node">
<title>4</title>
<ellipse fill="none" stroke="black" cx="240" cy="-142" rx="18" ry="18"/>
<text text-anchor="middle" x="240" y="-138.3" font-family="Helvetica,Arial,sans-serif" font-size="14.00">4</text>
</g>
<!-- 1&#45;&gt;4 -->
<g id="edge10" class="edge">
<title>1&#45;&gt;4</title>
<path fill="none" stroke="black" d="M123.99,-128.06C146.26,-130.76 185.61,-135.53 211.99,-138.73"/>
<polygon fill="black" stroke="black" points="211.73,-142.22 222.08,-139.95 212.57,-135.27 211.73,-142.22"/>
<text text-anchor="middle" x="146" y="-134.8" font-family="Helvetica,Arial,sans-serif" font-size="14.00">2</text>
</g>
<!-- 6&#45;&gt;9 -->
<g id="edge19" class="edge">
<title>6&#45;&gt;9</title>
<path fill="none" stroke="black" d="M615,-129.18C606.77,-129.9 597.02,-131.72 589.19,-136 582.06,-139.9 575.64,-145.83 570.31,-151.9"/>
<polygon fill="black" stroke="black" points="567.27,-150.09 563.74,-160.08 572.73,-154.47 567.27,-150.09"/>
<text text-anchor="middle" x="593.19" y="-139.8" font-family="Helvetica,Arial,sans-serif" font-size="14.00">0</text>
</g>
<!-- 6&#45;&gt;3 -->
<g id="edge18" class="edge">
<title>6&#45;&gt;3</title>
<path fill="none" stroke="black" d="M643.15,-113.86C649.26,-105.11 658.23,-94.89 669.19,-90 674.1,-87.81 679.64,-86.93 685.07,-86.8"/>
<polygon fill="black" stroke="black" points="685.03,-90.3 695.19,-87.31 685.38,-83.31 685.03,-90.3"/>
<text text-anchor="middle" x="673.19" y="-93.8" font-family="Helvetica,Arial,sans-serif" font-size="14.00">2</text>
</g>
<!-- 4&#45;&gt;10 -->
<g id="edge11" class="edge">
<title>4&#45;&gt;10</title>
<path fill="none" stroke="black" d="M258.03,-140.13C293.29,-137.11 375.65,-134.62 431.6,-169 439.37,-173.77 446.37,-180.68 452.18,-187.61"/>
<polygon fill="black" stroke="black" points="449.51,-189.88 458.42,-195.62 455.04,-185.58 449.51,-189.88"/>
<text text-anchor="middle" x="334" y="-144.8" font-family="Helvetica,Arial,sans-serif" font-size="14.00">2</text>
</g>
<!-- 3&#45;&gt;0 -->
<g id="edge16" class="edge">
<title>3&#45;&gt;0</title>
<path fill="none" stroke="black" d="M706.4,-73.88C696.28,-47.52 672.69,0 634.19,0 105,0 105,0 105,0 78.1,0 55.16,-21.89 40.44,-40.65"/>
<polygon fill="black" stroke="black" points="37.62,-38.58 34.46,-48.69 43.23,-42.76 37.62,-38.58"/>
<text text-anchor="middle" x="380.8" y="-3.8" font-family="Helvetica,Arial,sans-serif" font-size="14.00">2</text>
</g>
<!-- 3&#45;&gt;8 -->
<g id="edge15" class="edge">
<title>3&#45;&gt;8</title>
<path fill="none" stroke="black" d="M728.86,-100.59C740.19,-108 756.09,-118.39 769.12,-126.91"/>
<polygon fill="black" stroke="black" points="767.3,-129.91 777.59,-132.45 771.13,-124.05 767.3,-129.91"/>
<text text-anchor="middle" x="753.19" y="-122.8" font-family="Helvetica,Arial,sans-serif" font-size="14.00">2</text>
</g>
<!-- 3&#45;&gt;6 -->
<g id="edge17" class="edge">
<title>3&#45;&gt;6</title>
<path fill="none" stroke="black" d="M696.81,-98.49C685.93,-103.8 671.09,-111.02 658.6,-117.11"/>
<polygon fill="black" stroke="black" points="657.06,-113.97 649.6,-121.49 660.13,-120.26 657.06,-113.97"/>
<text text-anchor="middle" x="673.19" y="-115.8" font-family="Helvetica,Arial,sans-serif" font-size="14.00">0</text>
</g>
</g>
</svg>
