<?xml version="1.0" encoding="UTF-8" standalone="no"?>
<!DOCTYPE svg PUBLIC "-//W3C//DTD SVG 1.1//EN"
 "http://www.w3.org/Graphics/SVG/1.1/DTD/svg11.dtd">
<!-- Generated by graphviz version 2.43.0 (0)
 -->
<!-- Title: finite_state_machine Pages: 1 -->
<svg width="532pt" height="149pt"
 viewBox="0.00 0.00 531.60 149.00" xmlns="http://www.w3.org/2000/svg" xmlns:xlink="http://www.w3.org/1999/xlink">
<g id="graph0" class="graph" transform="scale(1 1) rotate(0) translate(4 145)">
<title>finite_state_machine</title>
<polygon fill="white" stroke="transparent" points="-4,4 -4,-145 527.6,-145 527.6,4 -4,4"/>
<!-- 0 -->
<g id="node1" class="node">
<title>0</title>
<ellipse fill="none" stroke="black" cx="24.8" cy="-25" rx="18" ry="18"/>
<ellipse fill="none" stroke="black" cx="24.8" cy="-25" rx="22" ry="22"/>
<text text-anchor="middle" x="24.8" y="-21.3" font-family="Helvetica,Arial,sans-serif" font-size="14.00">0</text>
</g>
<!-- 2 -->
<g id="node6" class="node">
<title>2</title>
<ellipse fill="none" stroke="black" cx="148.6" cy="-66" rx="18" ry="18"/>
<text text-anchor="middle" x="148.6" y="-62.3" font-family="Helvetica,Arial,sans-serif" font-size="14.00">2</text>
</g>
<!-- 0&#45;&gt;2 -->
<g id="edge8" class="edge">
<title>0&#45;&gt;2</title>
<path fill="none" stroke="black" d="M45.91,-31.77C66.65,-38.75 99.08,-49.67 121.72,-57.29"/>
<polygon fill="black" stroke="black" points="120.76,-60.66 131.36,-60.53 122.99,-54.03 120.76,-60.66"/>
<text text-anchor="middle" x="88.6" y="-56.8" font-family="Helvetica,Arial,sans-serif" font-size="14.00">3,5,4,8</text>
</g>
<!-- 1 -->
<g id="node7" class="node">
<title>1</title>
<ellipse fill="none" stroke="black" cx="268.6" cy="-18" rx="18" ry="18"/>
<text text-anchor="middle" x="268.6" y="-14.3" font-family="Helvetica,Arial,sans-serif" font-size="14.00">1</text>
</g>
<!-- 0&#45;&gt;1 -->
<g id="edge9" class="edge">
<title>0&#45;&gt;1</title>
<path fill="none" stroke="black" d="M46.83,-24.39C90.63,-23.12 191.57,-20.2 240.3,-18.79"/>
<polygon fill="black" stroke="black" points="240.52,-22.29 250.41,-18.5 240.31,-15.29 240.52,-22.29"/>
<text text-anchor="middle" x="148.6" y="-25.8" font-family="Helvetica,Arial,sans-serif" font-size="14.00">3,5,4,8</text>
</g>
<!-- 12 -->
<g id="node2" class="node">
<title>12</title>
<ellipse fill="none" stroke="black" cx="24.8" cy="-90" rx="20.63" ry="20.63"/>
<ellipse fill="none" stroke="black" cx="24.8" cy="-90" rx="24.6" ry="24.6"/>
<text text-anchor="middle" x="24.8" y="-86.3" font-family="Helvetica,Arial,sans-serif" font-size="14.00">12</text>
</g>
<!-- 4 -->
<g id="node3" class="node">
<title>4</title>
<ellipse fill="none" stroke="black" cx="268.6" cy="-123" rx="18" ry="18"/>
<text text-anchor="middle" x="268.6" y="-119.3" font-family="Helvetica,Arial,sans-serif" font-size="14.00">4</text>
</g>
<!-- 5 -->
<g id="node4" class="node">
<title>5</title>
<ellipse fill="none" stroke="black" cx="505.6" cy="-108" rx="18" ry="18"/>
<text text-anchor="middle" x="505.6" y="-104.3" font-family="Helvetica,Arial,sans-serif" font-size="14.00">5</text>
</g>
<!-- 4&#45;&gt;5 -->
<g id="edge1" class="edge">
<title>4&#45;&gt;5</title>
<path fill="none" stroke="black" d="M286.83,-123.78C321.6,-125.07 402.54,-126.62 469.6,-117 472.35,-116.6 475.21,-116.08 478.04,-115.47"/>
<polygon fill="black" stroke="black" points="479.12,-118.81 488.01,-113.06 477.47,-112.01 479.12,-118.81"/>
<text text-anchor="middle" x="388.6" y="-127.8" font-family="Helvetica,Arial,sans-serif" font-size="14.00">3,5,4,8</text>
</g>
<!-- 3 -->
<g id="node5" class="node">
<title>3</title>
<ellipse fill="none" stroke="black" cx="388.6" cy="-77" rx="18" ry="18"/>
<text text-anchor="middle" x="388.6" y="-73.3" font-family="Helvetica,Arial,sans-serif" font-size="14.00">3</text>
</g>
<!-- 4&#45;&gt;3 -->
<g id="edge2" class="edge">
<title>4&#45;&gt;3</title>
<path fill="none" stroke="black" d="M285.39,-115.63C292.17,-112.54 300.23,-108.98 307.6,-106 325.46,-98.78 345.89,-91.39 361.63,-85.87"/>
<polygon fill="black" stroke="black" points="362.92,-89.13 371.22,-82.54 360.63,-82.52 362.92,-89.13"/>
<text text-anchor="middle" x="328.6" y="-109.8" font-family="Helvetica,Arial,sans-serif" font-size="14.00">3,5,4,8</text>
</g>
<!-- 3&#45;&gt;5 -->
<g id="edge3" class="edge">
<title>3&#45;&gt;5</title>
<path fill="none" stroke="black" d="M406.07,-81.44C424.95,-86.53 456.12,-94.93 478.35,-100.92"/>
<polygon fill="black" stroke="black" points="477.58,-104.34 488.15,-103.57 479.41,-97.58 477.58,-104.34"/>
<text text-anchor="middle" x="448.6" y="-101.8" font-family="Helvetica,Arial,sans-serif" font-size="14.00">3,5,4,8</text>
</g>
<!-- 3&#45;&gt;2 -->
<g id="edge4" class="edge">
<title>3&#45;&gt;2</title>
<path fill="none" stroke="black" d="M370.32,-76.2C329.42,-74.31 226.45,-69.55 176.97,-67.27"/>
<polygon fill="black" stroke="black" points="176.86,-63.76 166.71,-66.79 176.54,-70.75 176.86,-63.76"/>
<text text-anchor="middle" x="268.6" y="-76.8" font-family="Helvetica,Arial,sans-serif" font-size="14.00">3,5,4,8</text>
</g>
<!-- 2&#45;&gt;4 -->
<g id="edge5" class="edge">
<title>2&#45;&gt;4</title>
<path fill="none" stroke="black" d="M164.67,-74.16C171.61,-77.86 179.98,-82.24 187.6,-86 205.89,-95.04 226.83,-104.7 242.69,-111.88"/>
<polygon fill="black" stroke="black" points="241.29,-115.09 251.85,-116 244.17,-108.7 241.29,-115.09"/>
<text text-anchor="middle" x="208.6" y="-109.8" font-family="Helvetica,Arial,sans-serif" font-size="14.00">3,5,4,8</text>
</g>
<!-- 2&#45;&gt;1 -->
<g id="edge6" class="edge">
<title>2&#45;&gt;1</title>
<path fill="none" stroke="black" d="M163.94,-56.19C170.87,-51.74 179.44,-46.68 187.6,-43 204.9,-35.2 225.34,-28.86 241.22,-24.51"/>
<polygon fill="black" stroke="black" points="242.15,-27.89 250.93,-21.95 240.37,-21.12 242.15,-27.89"/>
<text text-anchor="middle" x="208.6" y="-46.8" font-family="Helvetica,Arial,sans-serif" font-size="14.00">3,5,4,8</text>
</g>
<!-- 1&#45;&gt;3 -->
<g id="edge7" class="edge">
<title>1&#45;&gt;3</title>
<path fill="none" stroke="black" d="M286.37,-21.06C303.16,-24.61 329.35,-31.5 349.6,-43 356.11,-46.7 362.48,-51.67 368.07,-56.67"/>
<polygon fill="black" stroke="black" points="365.99,-59.52 375.65,-63.86 370.81,-54.44 365.99,-59.52"/>
<text text-anchor="middle" x="328.6" y="-46.8" font-family="Helvetica,Arial,sans-serif" font-size="14.00">2,5,4,8</text>
</g>
</g>
</svg>
