<?xml version="1.0" encoding="UTF-8" standalone="no"?>
<!DOCTYPE svg PUBLIC "-//W3C//DTD SVG 1.1//EN"
 "http://www.w3.org/Graphics/SVG/1.1/DTD/svg11.dtd">
<!-- Generated by graphviz version 2.43.0 (0)
 -->
<!-- Title: finite_state_machine Pages: 1 -->
<svg width="797pt" height="428pt"
 viewBox="0.00 0.00 796.79 428.00" xmlns="http://www.w3.org/2000/svg" xmlns:xlink="http://www.w3.org/1999/xlink">
<g id="graph0" class="graph" transform="scale(1 1) rotate(0) translate(4 424)">
<title>finite_state_machine</title>
<polygon fill="white" stroke="transparent" points="-4,4 -4,-424 792.79,-424 792.79,4 -4,4"/>
<!-- 0 -->
<g id="node1" class="node">
<title>0</title>
<ellipse fill="none" stroke="black" cx="22" cy="-267" rx="18" ry="18"/>
<ellipse fill="none" stroke="black" cx="22" cy="-267" rx="22" ry="22"/>
<text text-anchor="middle" x="22" y="-263.3" font-family="Helvetica,Arial,sans-serif" font-size="14.00">0</text>
</g>
<!-- 3 -->
<g id="node6" class="node">
<title>3</title>
<ellipse fill="none" stroke="black" cx="106" cy="-267" rx="18" ry="18"/>
<text text-anchor="middle" x="106" y="-263.3" font-family="Helvetica,Arial,sans-serif" font-size="14.00">3</text>
</g>
<!-- 0&#45;&gt;3 -->
<g id="edge18" class="edge">
<title>0&#45;&gt;3</title>
<path fill="none" stroke="black" d="M44.12,-267C54.3,-267 66.63,-267 77.53,-267"/>
<polygon fill="black" stroke="black" points="77.82,-270.5 87.82,-267 77.82,-263.5 77.82,-270.5"/>
<text text-anchor="middle" x="66" y="-270.8" font-family="Helvetica,Arial,sans-serif" font-size="14.00">0</text>
</g>
<!-- 2 -->
<g id="node9" class="node">
<title>2</title>
<ellipse fill="none" stroke="black" cx="770.79" cy="-57" rx="18" ry="18"/>
<text text-anchor="middle" x="770.79" y="-53.3" font-family="Helvetica,Arial,sans-serif" font-size="14.00">2</text>
</g>
<!-- 0&#45;&gt;2 -->
<g id="edge19" class="edge">
<title>0&#45;&gt;2</title>
<path fill="none" stroke="black" d="M26.06,-245.04C34.65,-187.73 61.29,-38 105,-38 105,-38 105,-38 691.79,-38 709.57,-38 729,-42.72 744.01,-47.45"/>
<polygon fill="black" stroke="black" points="743.04,-50.82 753.63,-50.67 745.26,-44.18 743.04,-50.82"/>
<text text-anchor="middle" x="391.6" y="-41.8" font-family="Helvetica,Arial,sans-serif" font-size="14.00">0</text>
</g>
<!-- 1 -->
<g id="node12" class="node">
<title>1</title>
<ellipse fill="none" stroke="black" cx="610.79" cy="-314" rx="18" ry="18"/>
<text text-anchor="middle" x="610.79" y="-310.3" font-family="Helvetica,Arial,sans-serif" font-size="14.00">1</text>
</g>
<!-- 0&#45;&gt;1 -->
<g id="edge20" class="edge">
<title>0&#45;&gt;1</title>
<path fill="none" stroke="black" d="M25.83,-288.87C32.22,-327.78 51.63,-405 105,-405 105,-405 105,-405 524.99,-405 549.56,-405 557.14,-398.09 574.79,-381 586.4,-369.76 594.93,-353.84 600.67,-340.33"/>
<polygon fill="black" stroke="black" points="603.93,-341.61 604.36,-331.03 597.42,-339.04 603.93,-341.61"/>
<text text-anchor="middle" x="311.6" y="-408.8" font-family="Helvetica,Arial,sans-serif" font-size="14.00">2</text>
</g>
<!-- 12 -->
<g id="node2" class="node">
<title>12</title>
<ellipse fill="none" stroke="black" cx="523.99" cy="-167" rx="20.63" ry="20.63"/>
<ellipse fill="none" stroke="black" cx="523.99" cy="-167" rx="24.6" ry="24.6"/>
<text text-anchor="middle" x="523.99" y="-163.3" font-family="Helvetica,Arial,sans-serif" font-size="14.00">12</text>
</g>
<!-- 10 -->
<g id="node8" class="node">
<title>10</title>
<ellipse fill="none" stroke="black" cx="434.39" cy="-203" rx="20.6" ry="20.6"/>
<text text-anchor="middle" x="434.39" y="-199.3" font-family="Helvetica,Arial,sans-serif" font-size="14.00">10</text>
</g>
<!-- 12&#45;&gt;10 -->
<g id="edge32" class="edge">
<title>12&#45;&gt;10</title>
<path fill="none" stroke="black" d="M500.72,-176.15C489.42,-180.8 475.58,-186.48 463.55,-191.43"/>
<polygon fill="black" stroke="black" points="461.89,-188.33 453.97,-195.37 464.55,-194.8 461.89,-188.33"/>
<text text-anchor="middle" x="477.19" y="-191.8" font-family="Helvetica,Arial,sans-serif" font-size="14.00">5</text>
</g>
<!-- 7 -->
<g id="node11" class="node">
<title>7</title>
<ellipse fill="none" stroke="black" cx="610.79" cy="-185" rx="18" ry="18"/>
<text text-anchor="middle" x="610.79" y="-181.3" font-family="Helvetica,Arial,sans-serif" font-size="14.00">7</text>
</g>
<!-- 12&#45;&gt;7 -->
<g id="edge31" class="edge">
<title>12&#45;&gt;7</title>
<path fill="none" stroke="black" d="M547.16,-157.54C555.91,-155.09 565.97,-153.91 574.79,-157 580.2,-158.9 585.4,-162.03 590.06,-165.52"/>
<polygon fill="black" stroke="black" points="587.89,-168.26 597.8,-172.01 592.39,-162.9 587.89,-168.26"/>
<text text-anchor="middle" x="570.79" y="-160.8" font-family="Helvetica,Arial,sans-serif" font-size="14.00">1</text>
</g>
<!-- 11 -->
<g id="node3" class="node">
<title>11</title>
<ellipse fill="none" stroke="black" cx="268.8" cy="-213" rx="20.6" ry="20.6"/>
<text text-anchor="middle" x="268.8" y="-209.3" font-family="Helvetica,Arial,sans-serif" font-size="14.00">11</text>
</g>
<!-- 9 -->
<g id="node4" class="node">
<title>9</title>
<ellipse fill="none" stroke="black" cx="351.6" cy="-241" rx="18" ry="18"/>
<text text-anchor="middle" x="351.6" y="-237.3" font-family="Helvetica,Arial,sans-serif" font-size="14.00">9</text>
</g>
<!-- 11&#45;&gt;9 -->
<g id="edge1" class="edge">
<title>11&#45;&gt;9</title>
<path fill="none" stroke="black" d="M289.9,-210.75C298.08,-210.52 307.5,-211.14 315.6,-214 320.8,-215.84 325.84,-218.77 330.4,-222.04"/>
<polygon fill="black" stroke="black" points="328.51,-225.01 338.49,-228.55 332.89,-219.56 328.51,-225.01"/>
<text text-anchor="middle" x="311.6" y="-217.8" font-family="Helvetica,Arial,sans-serif" font-size="14.00">2</text>
</g>
<!-- 6 -->
<g id="node7" class="node">
<title>6</title>
<ellipse fill="none" stroke="black" cx="268.8" cy="-289" rx="18" ry="18"/>
<text text-anchor="middle" x="268.8" y="-285.3" font-family="Helvetica,Arial,sans-serif" font-size="14.00">6</text>
</g>
<!-- 9&#45;&gt;6 -->
<g id="edge8" class="edge">
<title>9&#45;&gt;6</title>
<path fill="none" stroke="black" d="M337.05,-252.01C330.73,-256.89 322.98,-262.54 315.6,-267 309.2,-270.86 302.03,-274.57 295.29,-277.81"/>
<polygon fill="black" stroke="black" points="293.47,-274.8 285.87,-282.19 296.42,-281.15 293.47,-274.8"/>
<text text-anchor="middle" x="311.6" y="-275.8" font-family="Helvetica,Arial,sans-serif" font-size="14.00">2</text>
</g>
<!-- 9&#45;&gt;10 -->
<g id="edge9" class="edge">
<title>9&#45;&gt;10</title>
<path fill="none" stroke="black" d="M362.05,-226.32C368.23,-218.13 377.09,-208.66 387.6,-204 392.47,-201.84 397.93,-200.74 403.34,-200.3"/>
<polygon fill="black" stroke="black" points="403.55,-203.79 413.5,-200.14 403.45,-196.79 403.55,-203.79"/>
<text text-anchor="middle" x="391.6" y="-207.8" font-family="Helvetica,Arial,sans-serif" font-size="14.00">2</text>
</g>
<!-- 8 -->
<g id="node5" class="node">
<title>8</title>
<ellipse fill="none" stroke="black" cx="186" cy="-213" rx="18" ry="18"/>
<text text-anchor="middle" x="186" y="-209.3" font-family="Helvetica,Arial,sans-serif" font-size="14.00">8</text>
</g>
<!-- 8&#45;&gt;11 -->
<g id="edge2" class="edge">
<title>8&#45;&gt;11</title>
<path fill="none" stroke="black" d="M204.14,-213C213.82,-213 226.22,-213 237.5,-213"/>
<polygon fill="black" stroke="black" points="237.84,-216.5 247.84,-213 237.84,-209.5 237.84,-216.5"/>
<text text-anchor="middle" x="226" y="-216.8" font-family="Helvetica,Arial,sans-serif" font-size="14.00">2</text>
</g>
<!-- 3&#45;&gt;0 -->
<g id="edge4" class="edge">
<title>3&#45;&gt;0</title>
<path fill="none" stroke="black" d="M90.28,-257.46C84.25,-254.08 77.04,-250.7 70,-249 63.42,-247.41 56.53,-248.43 50.1,-250.62"/>
<polygon fill="black" stroke="black" points="48.26,-247.61 40.51,-254.83 51.08,-254.02 48.26,-247.61"/>
<text text-anchor="middle" x="66" y="-252.8" font-family="Helvetica,Arial,sans-serif" font-size="14.00">2</text>
</g>
<!-- 3&#45;&gt;8 -->
<g id="edge3" class="edge">
<title>3&#45;&gt;8</title>
<path fill="none" stroke="black" d="M119.89,-255.45C126.33,-249.91 134.36,-243.33 142,-238 147.9,-233.88 154.51,-229.8 160.75,-226.16"/>
<polygon fill="black" stroke="black" points="162.53,-229.18 169.5,-221.2 159.07,-223.09 162.53,-229.18"/>
<text text-anchor="middle" x="146" y="-241.8" font-family="Helvetica,Arial,sans-serif" font-size="14.00">2</text>
</g>
<!-- 3&#45;&gt;6 -->
<g id="edge5" class="edge">
<title>3&#45;&gt;6</title>
<path fill="none" stroke="black" d="M122.8,-274.06C128.74,-276.52 135.59,-279.12 142,-281 174.89,-290.65 214.62,-291.48 240.52,-290.68"/>
<polygon fill="black" stroke="black" points="240.86,-294.17 250.7,-290.26 240.57,-287.17 240.86,-294.17"/>
<text text-anchor="middle" x="186" y="-293.8" font-family="Helvetica,Arial,sans-serif" font-size="14.00">0</text>
</g>
<!-- 6&#45;&gt;9 -->
<g id="edge7" class="edge">
<title>6&#45;&gt;9</title>
<path fill="none" stroke="black" d="M280.69,-275.19C287.61,-267.3 297.19,-257.85 307.6,-252 312.43,-249.28 317.93,-247.22 323.36,-245.67"/>
<polygon fill="black" stroke="black" points="324.57,-248.98 333.49,-243.26 322.95,-242.17 324.57,-248.98"/>
<text text-anchor="middle" x="311.6" y="-255.8" font-family="Helvetica,Arial,sans-serif" font-size="14.00">0</text>
</g>
<!-- 6&#45;&gt;3 -->
<g id="edge6" class="edge">
<title>6&#45;&gt;3</title>
<path fill="none" stroke="black" d="M252.19,-281.98C239.5,-276.68 220.99,-269.85 204,-267 180.6,-263.08 153.57,-263.47 134,-264.62"/>
<polygon fill="black" stroke="black" points="133.7,-261.13 123.96,-265.31 134.18,-268.12 133.7,-261.13"/>
<text text-anchor="middle" x="186" y="-270.8" font-family="Helvetica,Arial,sans-serif" font-size="14.00">2</text>
</g>
<!-- 10&#45;&gt;12 -->
<g id="edge30" class="edge">
<title>10&#45;&gt;12</title>
<path fill="none" stroke="black" d="M446,-185.4C452.57,-176.28 461.9,-166.03 473.19,-161 478.36,-158.7 484.12,-157.95 489.83,-158.12"/>
<polygon fill="black" stroke="black" points="489.59,-161.61 499.92,-159.27 490.38,-154.66 489.59,-161.61"/>
<text text-anchor="middle" x="477.19" y="-164.8" font-family="Helvetica,Arial,sans-serif" font-size="14.00">1</text>
</g>
<!-- 10&#45;&gt;9 -->
<g id="edge27" class="edge">
<title>10&#45;&gt;9</title>
<path fill="none" stroke="black" d="M415.32,-211.5C404.15,-216.75 389.65,-223.57 377.4,-229.33"/>
<polygon fill="black" stroke="black" points="375.73,-226.25 368.18,-233.67 378.71,-232.58 375.73,-226.25"/>
<text text-anchor="middle" x="391.6" y="-228.8" font-family="Helvetica,Arial,sans-serif" font-size="14.00">2</text>
</g>
<!-- 5 -->
<g id="node10" class="node">
<title>5</title>
<ellipse fill="none" stroke="black" cx="690.79" cy="-114" rx="18" ry="18"/>
<text text-anchor="middle" x="690.79" y="-110.3" font-family="Helvetica,Arial,sans-serif" font-size="14.00">5</text>
</g>
<!-- 10&#45;&gt;5 -->
<g id="edge28" class="edge">
<title>10&#45;&gt;5</title>
<path fill="none" stroke="black" d="M445.36,-185.18C456.1,-168.04 474.97,-143.26 499.19,-133 553.53,-109.97 624.14,-109.74 662.33,-111.77"/>
<polygon fill="black" stroke="black" points="662.45,-115.28 672.65,-112.41 662.89,-108.29 662.45,-115.28"/>
<text text-anchor="middle" x="570.79" y="-119.8" font-family="Helvetica,Arial,sans-serif" font-size="14.00">1</text>
</g>
<!-- 4 -->
<g id="node13" class="node">
<title>4</title>
<ellipse fill="none" stroke="black" cx="523.99" cy="-281" rx="18" ry="18"/>
<text text-anchor="middle" x="523.99" y="-277.3" font-family="Helvetica,Arial,sans-serif" font-size="14.00">4</text>
</g>
<!-- 10&#45;&gt;4 -->
<g id="edge29" class="edge">
<title>10&#45;&gt;4</title>
<path fill="none" stroke="black" d="M442.57,-222.44C448.69,-236.45 458.8,-254.8 473.19,-266 479.73,-271.09 487.98,-274.46 495.88,-276.69"/>
<polygon fill="black" stroke="black" points="495.35,-280.16 505.88,-279 496.93,-273.34 495.35,-280.16"/>
<text text-anchor="middle" x="477.19" y="-274.8" font-family="Helvetica,Arial,sans-serif" font-size="14.00">2</text>
</g>
<!-- 2&#45;&gt;0 -->
<g id="edge10" class="edge">
<title>2&#45;&gt;0</title>
<path fill="none" stroke="black" d="M759.42,-42.62C745.93,-25.73 720.64,0 691.79,0 105,0 105,0 105,0 83.11,0 74.55,-6.07 62,-24 38.54,-57.54 28.35,-176.96 24.71,-234.95"/>
<polygon fill="black" stroke="black" points="21.21,-234.83 24.1,-245.03 28.2,-235.25 21.21,-234.83"/>
<text text-anchor="middle" x="391.6" y="-3.8" font-family="Helvetica,Arial,sans-serif" font-size="14.00">2</text>
</g>
<!-- 2&#45;&gt;5 -->
<g id="edge11" class="edge">
<title>2&#45;&gt;5</title>
<path fill="none" stroke="black" d="M753.43,-62.4C745.03,-65.62 734.89,-70.2 726.79,-76 720.37,-80.59 714.23,-86.52 708.93,-92.32"/>
<polygon fill="black" stroke="black" points="706.18,-90.16 702.29,-100.01 711.47,-94.73 706.18,-90.16"/>
<text text-anchor="middle" x="730.79" y="-79.8" font-family="Helvetica,Arial,sans-serif" font-size="14.00">0</text>
</g>
<!-- 5&#45;&gt;10 -->
<g id="edge12" class="edge">
<title>5&#45;&gt;10</title>
<path fill="none" stroke="black" d="M674.28,-106.42C635.02,-88.45 530.75,-48.48 473.19,-100 452.64,-118.4 443.24,-148.94 438.96,-172"/>
<polygon fill="black" stroke="black" points="435.48,-171.57 437.33,-182 442.39,-172.69 435.48,-171.57"/>
<text text-anchor="middle" x="570.79" y="-80.8" font-family="Helvetica,Arial,sans-serif" font-size="14.00">0</text>
</g>
<!-- 5&#45;&gt;2 -->
<g id="edge13" class="edge">
<title>5&#45;&gt;2</title>
<path fill="none" stroke="black" d="M707.54,-106.9C715.96,-102.78 726.31,-97.19 734.79,-91 740.27,-87 745.74,-82.17 750.68,-77.43"/>
<polygon fill="black" stroke="black" points="753.33,-79.73 757.92,-70.18 748.38,-74.79 753.33,-79.73"/>
<text text-anchor="middle" x="730.79" y="-100.8" font-family="Helvetica,Arial,sans-serif" font-size="14.00">2</text>
</g>
<!-- 5&#45;&gt;7 -->
<g id="edge14" class="edge">
<title>5&#45;&gt;7</title>
<path fill="none" stroke="black" d="M675.82,-124.23C667.2,-130.74 656.06,-139.52 646.79,-148 641.27,-153.05 635.57,-158.81 630.42,-164.25"/>
<polygon fill="black" stroke="black" points="627.57,-162.17 623.34,-171.89 632.71,-166.93 627.57,-162.17"/>
<text text-anchor="middle" x="650.79" y="-151.8" font-family="Helvetica,Arial,sans-serif" font-size="14.00">0</text>
</g>
<!-- 7&#45;&gt;12 -->
<g id="edge17" class="edge">
<title>7&#45;&gt;12</title>
<path fill="none" stroke="black" d="M593.01,-181.44C583.19,-179.35 570.45,-176.65 558.64,-174.14"/>
<polygon fill="black" stroke="black" points="559.12,-170.67 548.61,-172.01 557.67,-177.51 559.12,-170.67"/>
<text text-anchor="middle" x="570.79" y="-181.8" font-family="Helvetica,Arial,sans-serif" font-size="14.00">1</text>
</g>
<!-- 7&#45;&gt;10 -->
<g id="edge15" class="edge">
<title>7&#45;&gt;10</title>
<path fill="none" stroke="black" d="M593.59,-191.23C587.73,-193.3 581.03,-195.46 574.79,-197 530.73,-207.85 518.5,-209.39 473.19,-207 470.66,-206.87 468.03,-206.68 465.39,-206.47"/>
<polygon fill="black" stroke="black" points="465.66,-202.98 455.37,-205.51 465,-209.94 465.66,-202.98"/>
<text text-anchor="middle" x="523.99" y="-211.8" font-family="Helvetica,Arial,sans-serif" font-size="14.00">1</text>
</g>
<!-- 7&#45;&gt;5 -->
<g id="edge16" class="edge">
<title>7&#45;&gt;5</title>
<path fill="none" stroke="black" d="M628.02,-178.9C636.58,-175.17 646.92,-169.79 654.79,-163 662.9,-156.01 670.12,-146.77 675.87,-138.2"/>
<polygon fill="black" stroke="black" points="678.9,-139.95 681.3,-129.63 672.99,-136.2 678.9,-139.95"/>
<text text-anchor="middle" x="650.79" y="-172.8" font-family="Helvetica,Arial,sans-serif" font-size="14.00">1</text>
</g>
<!-- 1&#45;&gt;0 -->
<g id="edge23" class="edge">
<title>1&#45;&gt;0</title>
<path fill="none" stroke="black" d="M598.3,-327.1C583.19,-342.8 555.03,-367 524.99,-367 105,-367 105,-367 105,-367 68.49,-367 45.28,-326.65 33.2,-297.21"/>
<polygon fill="black" stroke="black" points="36.4,-295.78 29.53,-287.72 29.87,-298.31 36.4,-295.78"/>
<text text-anchor="middle" x="311.6" y="-370.8" font-family="Helvetica,Arial,sans-serif" font-size="14.00">2</text>
</g>
<!-- 1&#45;&gt;6 -->
<g id="edge22" class="edge">
<title>1&#45;&gt;6</title>
<path fill="none" stroke="black" d="M592.63,-314.92C584.75,-315.21 575.29,-315.37 566.79,-315 467.1,-310.64 349.13,-298.1 296.95,-292.18"/>
<polygon fill="black" stroke="black" points="297.17,-288.68 286.84,-291.02 296.37,-295.63 297.17,-288.68"/>
<text text-anchor="middle" x="434.39" y="-310.8" font-family="Helvetica,Arial,sans-serif" font-size="14.00">2</text>
</g>
<!-- 1&#45;&gt;5 -->
<g id="edge21" class="edge">
<title>1&#45;&gt;5</title>
<path fill="none" stroke="black" d="M618.31,-297.29C631.9,-262.43 663.38,-181.7 679.65,-139.99"/>
<polygon fill="black" stroke="black" points="682.97,-141.11 683.35,-130.52 676.45,-138.56 682.97,-141.11"/>
<text text-anchor="middle" x="650.79" y="-223.8" font-family="Helvetica,Arial,sans-serif" font-size="14.00">2</text>
</g>
<!-- 1&#45;&gt;4 -->
<g id="edge24" class="edge">
<title>1&#45;&gt;4</title>
<path fill="none" stroke="black" d="M603.61,-297.33C598.1,-285.11 588.72,-269.41 574.79,-262 566.06,-257.35 555.94,-259.9 547.11,-264.44"/>
<polygon fill="black" stroke="black" points="545.22,-261.49 538.49,-269.68 548.86,-267.47 545.22,-261.49"/>
<text text-anchor="middle" x="570.79" y="-265.8" font-family="Helvetica,Arial,sans-serif" font-size="14.00">0</text>
</g>
<!-- 4&#45;&gt;10 -->
<g id="edge26" class="edge">
<title>4&#45;&gt;10</title>
<path fill="none" stroke="black" d="M509.27,-269.81C499.16,-261.47 485.15,-249.72 473.19,-239 467.93,-234.29 462.37,-229.1 457.18,-224.18"/>
<polygon fill="black" stroke="black" points="459.56,-221.61 449.92,-217.23 454.72,-226.67 459.56,-221.61"/>
<text text-anchor="middle" x="477.19" y="-250.8" font-family="Helvetica,Arial,sans-serif" font-size="14.00">0</text>
</g>
<!-- 4&#45;&gt;1 -->
<g id="edge25" class="edge">
<title>4&#45;&gt;1</title>
<path fill="none" stroke="black" d="M541.16,-287.1C550.92,-290.79 563.58,-295.62 574.79,-300 577.9,-301.21 581.16,-302.5 584.38,-303.78"/>
<polygon fill="black" stroke="black" points="583.2,-307.08 593.78,-307.53 585.79,-300.58 583.2,-307.08"/>
<text text-anchor="middle" x="570.79" y="-303.8" font-family="Helvetica,Arial,sans-serif" font-size="14.00">2</text>
</g>
</g>
</svg>
