<?xml version="1.0" encoding="UTF-8" standalone="no"?>
<!DOCTYPE svg PUBLIC "-//W3C//DTD SVG 1.1//EN"
 "http://www.w3.org/Graphics/SVG/1.1/DTD/svg11.dtd">
<!-- Generated by graphviz version 2.43.0 (0)
 -->
<!-- Title: finite_state_machine Pages: 1 -->
<svg width="1037pt" height="407pt"
 viewBox="0.00 0.00 1036.79 407.00" xmlns="http://www.w3.org/2000/svg" xmlns:xlink="http://www.w3.org/1999/xlink">
<g id="graph0" class="graph" transform="scale(1 1) rotate(0) translate(4 403)">
<title>finite_state_machine</title>
<polygon fill="white" stroke="transparent" points="-4,4 -4,-403 1032.79,-403 1032.79,4 -4,4"/>
<!-- 0 -->
<g id="node1" class="node">
<title>0</title>
<ellipse fill="none" stroke="black" cx="22" cy="-293" rx="18" ry="18"/>
<ellipse fill="none" stroke="black" cx="22" cy="-293" rx="22" ry="22"/>
<text text-anchor="middle" x="22" y="-289.3" font-family="Helvetica,Arial,sans-serif" font-size="14.00">0</text>
</g>
<!-- 2 -->
<g id="node3" class="node">
<title>2</title>
<ellipse fill="none" stroke="black" cx="106" cy="-240" rx="18" ry="18"/>
<text text-anchor="middle" x="106" y="-236.3" font-family="Helvetica,Arial,sans-serif" font-size="14.00">2</text>
</g>
<!-- 0&#45;&gt;2 -->
<g id="edge12" class="edge">
<title>0&#45;&gt;2</title>
<path fill="none" stroke="black" d="M40.79,-281.5C52.89,-273.68 69,-263.27 82.05,-254.83"/>
<polygon fill="black" stroke="black" points="84.02,-257.73 90.52,-249.36 80.22,-251.85 84.02,-257.73"/>
<text text-anchor="middle" x="66" y="-269.8" font-family="Helvetica,Arial,sans-serif" font-size="14.00">0</text>
</g>
<!-- 1 -->
<g id="node8" class="node">
<title>1</title>
<ellipse fill="none" stroke="black" cx="930.79" cy="-235" rx="18" ry="18"/>
<text text-anchor="middle" x="930.79" y="-231.3" font-family="Helvetica,Arial,sans-serif" font-size="14.00">1</text>
</g>
<!-- 0&#45;&gt;1 -->
<g id="edge13" class="edge">
<title>0&#45;&gt;1</title>
<path fill="none" stroke="black" d="M30.85,-313.65C42.57,-340.5 67.36,-384 105,-384 105,-384 105,-384 851.79,-384 905.76,-384 922.46,-306.33 927.57,-263.14"/>
<polygon fill="black" stroke="black" points="931.07,-263.28 928.63,-252.97 924.11,-262.55 931.07,-263.28"/>
<text text-anchor="middle" x="485.19" y="-387.8" font-family="Helvetica,Arial,sans-serif" font-size="14.00">1</text>
</g>
<!-- 3 -->
<g id="node9" class="node">
<title>3</title>
<ellipse fill="none" stroke="black" cx="770.79" cy="-175" rx="18" ry="18"/>
<text text-anchor="middle" x="770.79" y="-171.3" font-family="Helvetica,Arial,sans-serif" font-size="14.00">3</text>
</g>
<!-- 0&#45;&gt;3 -->
<g id="edge11" class="edge">
<title>0&#45;&gt;3</title>
<path fill="none" stroke="black" d="M24.4,-270.98C29.33,-202.84 48.74,0 105,0 105,0 105,0 486.19,0 542.72,0 693.49,-15.4 734.79,-54 760.32,-77.86 767.61,-119.07 769.49,-146.68"/>
<polygon fill="black" stroke="black" points="766.01,-147.07 769.98,-156.89 773,-146.73 766.01,-147.07"/>
<text text-anchor="middle" x="399.6" y="-3.8" font-family="Helvetica,Arial,sans-serif" font-size="14.00">0</text>
</g>
<!-- 12 -->
<g id="node2" class="node">
<title>12</title>
<ellipse fill="none" stroke="black" cx="352.8" cy="-84" rx="20.63" ry="20.63"/>
<ellipse fill="none" stroke="black" cx="352.8" cy="-84" rx="24.6" ry="24.6"/>
<text text-anchor="middle" x="352.8" y="-80.3" font-family="Helvetica,Arial,sans-serif" font-size="14.00">12</text>
</g>
<!-- 10 -->
<g id="node5" class="node">
<title>10</title>
<ellipse fill="none" stroke="black" cx="442.39" cy="-119" rx="20.6" ry="20.6"/>
<text text-anchor="middle" x="442.39" y="-115.3" font-family="Helvetica,Arial,sans-serif" font-size="14.00">10</text>
</g>
<!-- 12&#45;&gt;10 -->
<g id="edge36" class="edge">
<title>12&#45;&gt;10</title>
<path fill="none" stroke="black" d="M376.36,-93.01C387.6,-97.51 401.32,-102.99 413.25,-107.75"/>
<polygon fill="black" stroke="black" points="412.17,-111.09 422.75,-111.55 414.77,-104.59 412.17,-111.09"/>
<text text-anchor="middle" x="399.6" y="-107.8" font-family="Helvetica,Arial,sans-serif" font-size="14.00">6</text>
</g>
<!-- 7 -->
<g id="node6" class="node">
<title>7</title>
<ellipse fill="none" stroke="black" cx="266" cy="-124" rx="18" ry="18"/>
<text text-anchor="middle" x="266" y="-120.3" font-family="Helvetica,Arial,sans-serif" font-size="14.00">7</text>
</g>
<!-- 12&#45;&gt;7 -->
<g id="edge35" class="edge">
<title>12&#45;&gt;7</title>
<path fill="none" stroke="black" d="M329.96,-94.3C318.25,-99.83 303.78,-106.65 291.67,-112.37"/>
<polygon fill="black" stroke="black" points="290.1,-109.23 282.55,-116.66 293.09,-115.56 290.1,-109.23"/>
<text text-anchor="middle" x="306" y="-110.8" font-family="Helvetica,Arial,sans-serif" font-size="14.00">1</text>
</g>
<!-- 2&#45;&gt;0 -->
<g id="edge1" class="edge">
<title>2&#45;&gt;0</title>
<path fill="none" stroke="black" d="M88.23,-237.08C79.91,-236.42 69.97,-236.9 62,-241 51.89,-246.2 43.69,-255.37 37.47,-264.57"/>
<polygon fill="black" stroke="black" points="34.38,-262.93 32.12,-273.28 40.34,-266.6 34.38,-262.93"/>
<text text-anchor="middle" x="66" y="-244.8" font-family="Helvetica,Arial,sans-serif" font-size="14.00">2</text>
</g>
<!-- 5 -->
<g id="node4" class="node">
<title>5</title>
<ellipse fill="none" stroke="black" cx="186" cy="-202" rx="18" ry="18"/>
<text text-anchor="middle" x="186" y="-198.3" font-family="Helvetica,Arial,sans-serif" font-size="14.00">5</text>
</g>
<!-- 2&#45;&gt;5 -->
<g id="edge2" class="edge">
<title>2&#45;&gt;5</title>
<path fill="none" stroke="black" d="M122.41,-232.49C133.31,-227.18 148.14,-219.96 160.63,-213.87"/>
<polygon fill="black" stroke="black" points="162.16,-217.02 169.62,-209.49 159.1,-210.73 162.16,-217.02"/>
<text text-anchor="middle" x="146" y="-226.8" font-family="Helvetica,Arial,sans-serif" font-size="14.00">0</text>
</g>
<!-- 5&#45;&gt;2 -->
<g id="edge4" class="edge">
<title>5&#45;&gt;2</title>
<path fill="none" stroke="black" d="M168,-198.31C159.81,-197.34 150.05,-197.41 142,-201 134.29,-204.44 127.57,-210.51 122.13,-216.86"/>
<polygon fill="black" stroke="black" points="119.3,-214.8 115.96,-224.86 124.84,-219.08 119.3,-214.8"/>
<text text-anchor="middle" x="146" y="-204.8" font-family="Helvetica,Arial,sans-serif" font-size="14.00">2</text>
</g>
<!-- 5&#45;&gt;10 -->
<g id="edge3" class="edge">
<title>5&#45;&gt;10</title>
<path fill="none" stroke="black" d="M203.59,-197.2C236.71,-187.61 313.36,-165.32 377.6,-146 389.17,-142.52 392.38,-142.51 403.6,-138 407.14,-136.57 410.81,-134.94 414.41,-133.25"/>
<polygon fill="black" stroke="black" points="416.18,-136.27 423.6,-128.71 413.09,-129.99 416.18,-136.27"/>
<text text-anchor="middle" x="306" y="-172.8" font-family="Helvetica,Arial,sans-serif" font-size="14.00">0</text>
</g>
<!-- 5&#45;&gt;7 -->
<g id="edge5" class="edge">
<title>5&#45;&gt;7</title>
<path fill="none" stroke="black" d="M189.59,-184.12C193.3,-165.8 202.03,-138.19 222,-125 226.75,-121.86 232.49,-120.5 238.2,-120.15"/>
<polygon fill="black" stroke="black" points="238.15,-123.65 248.24,-120.41 238.33,-116.65 238.15,-123.65"/>
<text text-anchor="middle" x="226" y="-128.8" font-family="Helvetica,Arial,sans-serif" font-size="14.00">0</text>
</g>
<!-- 10&#45;&gt;12 -->
<g id="edge34" class="edge">
<title>10&#45;&gt;12</title>
<path fill="none" stroke="black" d="M429.36,-102.29C422.74,-94.55 413.8,-86.16 403.6,-82 398.62,-79.97 393.12,-79.04 387.65,-78.8"/>
<polygon fill="black" stroke="black" points="387.21,-75.31 377.31,-79.08 387.4,-82.31 387.21,-75.31"/>
<text text-anchor="middle" x="399.6" y="-85.8" font-family="Helvetica,Arial,sans-serif" font-size="14.00">0</text>
</g>
<!-- 10&#45;&gt;5 -->
<g id="edge31" class="edge">
<title>10&#45;&gt;5</title>
<path fill="none" stroke="black" d="M427.42,-133.54C420.59,-140.22 412.04,-147.97 403.6,-154 392.92,-161.63 389.73,-163 377.6,-168 315.07,-193.76 297.26,-197.93 230,-205 224.96,-205.53 219.58,-205.57 214.39,-205.34"/>
<polygon fill="black" stroke="black" points="214.42,-201.83 204.18,-204.57 213.89,-208.81 214.42,-201.83"/>
<text text-anchor="middle" x="306" y="-198.8" font-family="Helvetica,Arial,sans-serif" font-size="14.00">1</text>
</g>
<!-- 4 -->
<g id="node7" class="node">
<title>4</title>
<ellipse fill="none" stroke="black" cx="1010.79" cy="-114" rx="18" ry="18"/>
<text text-anchor="middle" x="1010.79" y="-110.3" font-family="Helvetica,Arial,sans-serif" font-size="14.00">4</text>
</g>
<!-- 10&#45;&gt;4 -->
<g id="edge32" class="edge">
<title>10&#45;&gt;4</title>
<path fill="none" stroke="black" d="M457.29,-103.93C488.42,-71.91 567.48,0 649.79,0 649.79,0 649.79,0 931.79,0 973.52,0 994.55,-52.67 1003.75,-86.4"/>
<polygon fill="black" stroke="black" points="1000.38,-87.36 1006.23,-96.19 1007.17,-85.63 1000.38,-87.36"/>
<text text-anchor="middle" x="730.79" y="-3.8" font-family="Helvetica,Arial,sans-serif" font-size="14.00">2</text>
</g>
<!-- 9 -->
<g id="node11" class="node">
<title>9</title>
<ellipse fill="none" stroke="black" cx="525.19" cy="-157" rx="18" ry="18"/>
<text text-anchor="middle" x="525.19" y="-153.3" font-family="Helvetica,Arial,sans-serif" font-size="14.00">9</text>
</g>
<!-- 10&#45;&gt;9 -->
<g id="edge33" class="edge">
<title>10&#45;&gt;9</title>
<path fill="none" stroke="black" d="M462.84,-114.96C471.28,-114.11 481.06,-114.37 489.19,-118 496.9,-121.44 503.62,-127.51 509.06,-133.86"/>
<polygon fill="black" stroke="black" points="506.35,-136.08 515.23,-141.86 511.89,-131.8 506.35,-136.08"/>
<text text-anchor="middle" x="485.19" y="-121.8" font-family="Helvetica,Arial,sans-serif" font-size="14.00">3</text>
</g>
<!-- 7&#45;&gt;12 -->
<g id="edge8" class="edge">
<title>7&#45;&gt;12</title>
<path fill="none" stroke="black" d="M275.42,-108.15C281.43,-98.65 290.48,-87.39 302,-82 307.04,-79.64 312.7,-78.59 318.34,-78.34"/>
<polygon fill="black" stroke="black" points="318.24,-81.84 328.35,-78.66 318.46,-74.85 318.24,-81.84"/>
<text text-anchor="middle" x="306" y="-85.8" font-family="Helvetica,Arial,sans-serif" font-size="14.00">1</text>
</g>
<!-- 7&#45;&gt;5 -->
<g id="edge7" class="edge">
<title>7&#45;&gt;5</title>
<path fill="none" stroke="black" d="M251.88,-135.27C243.2,-142.88 231.67,-153.28 222,-163 216.35,-168.68 210.45,-175.06 205.14,-180.99"/>
<polygon fill="black" stroke="black" points="202.34,-178.88 198.34,-188.69 207.58,-183.51 202.34,-178.88"/>
<text text-anchor="middle" x="226" y="-166.8" font-family="Helvetica,Arial,sans-serif" font-size="14.00">1</text>
</g>
<!-- 7&#45;&gt;10 -->
<g id="edge6" class="edge">
<title>7&#45;&gt;10</title>
<path fill="none" stroke="black" d="M284.08,-125.17C289.78,-125.51 296.16,-125.83 302,-126 347.16,-127.29 358.53,-126.1 403.6,-123 406.13,-122.83 408.76,-122.61 411.39,-122.38"/>
<polygon fill="black" stroke="black" points="411.8,-125.85 421.41,-121.39 411.11,-118.89 411.8,-125.85"/>
<text text-anchor="middle" x="352.8" y="-130.8" font-family="Helvetica,Arial,sans-serif" font-size="14.00">1</text>
</g>
<!-- 4&#45;&gt;10 -->
<g id="edge10" class="edge">
<title>4&#45;&gt;10</title>
<path fill="none" stroke="black" d="M996.38,-102.8C981.56,-91.6 956.49,-76 931.79,-76 524.19,-76 524.19,-76 524.19,-76 502.94,-76 481.84,-87.74 466.53,-98.95"/>
<polygon fill="black" stroke="black" points="463.98,-96.5 458.23,-105.39 468.28,-102.02 463.98,-96.5"/>
<text text-anchor="middle" x="730.79" y="-79.8" font-family="Helvetica,Arial,sans-serif" font-size="14.00">0</text>
</g>
<!-- 4&#45;&gt;1 -->
<g id="edge9" class="edge">
<title>4&#45;&gt;1</title>
<path fill="none" stroke="black" d="M999.95,-128.64C991.16,-141.77 977.99,-161.59 966.79,-179 960.05,-189.48 952.72,-201.16 946.52,-211.13"/>
<polygon fill="black" stroke="black" points="943.49,-209.38 941.19,-219.72 949.44,-213.07 943.49,-209.38"/>
<text text-anchor="middle" x="970.79" y="-182.8" font-family="Helvetica,Arial,sans-serif" font-size="14.00">2</text>
</g>
<!-- 1&#45;&gt;0 -->
<g id="edge16" class="edge">
<title>1&#45;&gt;0</title>
<path fill="none" stroke="black" d="M925.96,-252.83C918.05,-284.21 896.78,-346 851.79,-346 105,-346 105,-346 105,-346 81.62,-346 59.62,-330.61 44.31,-316.42"/>
<polygon fill="black" stroke="black" points="46.53,-313.69 36.94,-309.19 41.63,-318.69 46.53,-313.69"/>
<text text-anchor="middle" x="485.19" y="-349.8" font-family="Helvetica,Arial,sans-serif" font-size="14.00">3</text>
</g>
<!-- 1&#45;&gt;5 -->
<g id="edge14" class="edge">
<title>1&#45;&gt;5</title>
<path fill="none" stroke="black" d="M912.96,-238.61C869.79,-247.56 751.51,-270 651.79,-270 265,-270 265,-270 265,-270 237.42,-270 214.88,-245.55 201.24,-225.98"/>
<polygon fill="black" stroke="black" points="204.04,-223.86 195.61,-217.43 198.19,-227.71 204.04,-223.86"/>
<text text-anchor="middle" x="565.19" y="-273.8" font-family="Helvetica,Arial,sans-serif" font-size="14.00">2</text>
</g>
<!-- 1&#45;&gt;4 -->
<g id="edge15" class="edge">
<title>1&#45;&gt;4</title>
<path fill="none" stroke="black" d="M945.57,-224.33C954.77,-216.66 966.63,-205.66 974.79,-194 986.31,-177.55 995.28,-156.69 1001.25,-140.4"/>
<polygon fill="black" stroke="black" points="1004.57,-141.52 1004.58,-130.93 997.97,-139.2 1004.57,-141.52"/>
<text text-anchor="middle" x="970.79" y="-206.8" font-family="Helvetica,Arial,sans-serif" font-size="14.00">0</text>
</g>
<!-- 6 -->
<g id="node10" class="node">
<title>6</title>
<ellipse fill="none" stroke="black" cx="850.79" cy="-197" rx="18" ry="18"/>
<text text-anchor="middle" x="850.79" y="-193.3" font-family="Helvetica,Arial,sans-serif" font-size="14.00">6</text>
</g>
<!-- 1&#45;&gt;6 -->
<g id="edge17" class="edge">
<title>1&#45;&gt;6</title>
<path fill="none" stroke="black" d="M920.33,-220.33C914.15,-212.14 905.29,-202.67 894.79,-198 889.88,-195.82 884.34,-194.78 878.91,-194.42"/>
<polygon fill="black" stroke="black" points="878.78,-190.92 868.78,-194.44 878.79,-197.92 878.78,-190.92"/>
<text text-anchor="middle" x="890.79" y="-201.8" font-family="Helvetica,Arial,sans-serif" font-size="14.00">1</text>
</g>
<!-- 3&#45;&gt;0 -->
<g id="edge21" class="edge">
<title>3&#45;&gt;0</title>
<path fill="none" stroke="black" d="M763.98,-191.84C750.45,-227.63 713.22,-308 651.79,-308 105,-308 105,-308 105,-308 87.71,-308 68.71,-304.73 53.35,-301.25"/>
<polygon fill="black" stroke="black" points="53.91,-297.79 43.37,-298.84 52.27,-304.59 53.91,-297.79"/>
<text text-anchor="middle" x="399.6" y="-311.8" font-family="Helvetica,Arial,sans-serif" font-size="14.00">2</text>
</g>
<!-- 3&#45;&gt;6 -->
<g id="edge22" class="edge">
<title>3&#45;&gt;6</title>
<path fill="none" stroke="black" d="M788.33,-179.67C798.57,-182.55 811.94,-186.32 823.59,-189.61"/>
<polygon fill="black" stroke="black" points="822.7,-192.99 833.27,-192.34 824.6,-186.26 822.7,-192.99"/>
<text text-anchor="middle" x="810.79" y="-190.8" font-family="Helvetica,Arial,sans-serif" font-size="14.00">1</text>
</g>
<!-- 8 -->
<g id="node12" class="node">
<title>8</title>
<ellipse fill="none" stroke="black" cx="690.79" cy="-173" rx="18" ry="18"/>
<text text-anchor="middle" x="690.79" y="-169.3" font-family="Helvetica,Arial,sans-serif" font-size="14.00">8</text>
</g>
<!-- 3&#45;&gt;8 -->
<g id="edge23" class="edge">
<title>3&#45;&gt;8</title>
<path fill="none" stroke="black" d="M755.01,-165.98C748.97,-162.8 741.77,-159.61 734.79,-158 728.57,-156.57 722,-157.53 715.91,-159.52"/>
<polygon fill="black" stroke="black" points="714.13,-156.48 706.28,-163.6 716.86,-162.92 714.13,-156.48"/>
<text text-anchor="middle" x="730.79" y="-161.8" font-family="Helvetica,Arial,sans-serif" font-size="14.00">1</text>
</g>
<!-- 6&#45;&gt;1 -->
<g id="edge19" class="edge">
<title>6&#45;&gt;1</title>
<path fill="none" stroke="black" d="M867.2,-204.51C878.1,-209.82 892.93,-217.04 905.42,-223.13"/>
<polygon fill="black" stroke="black" points="903.89,-226.27 914.41,-227.51 906.95,-219.98 903.89,-226.27"/>
<text text-anchor="middle" x="890.79" y="-221.8" font-family="Helvetica,Arial,sans-serif" font-size="14.00">1</text>
</g>
<!-- 6&#45;&gt;3 -->
<g id="edge20" class="edge">
<title>6&#45;&gt;3</title>
<path fill="none" stroke="black" d="M840.37,-182.24C834.21,-174.02 825.35,-164.55 814.79,-160 808.59,-157.33 801.75,-158.11 795.38,-160.33"/>
<polygon fill="black" stroke="black" points="793.52,-157.34 785.92,-164.72 796.47,-163.68 793.52,-157.34"/>
<text text-anchor="middle" x="810.79" y="-163.8" font-family="Helvetica,Arial,sans-serif" font-size="14.00">1</text>
</g>
<!-- 6&#45;&gt;9 -->
<g id="edge18" class="edge">
<title>6&#45;&gt;9</title>
<path fill="none" stroke="black" d="M842.19,-181.09C830.43,-159.08 805.6,-122 771.79,-122 606.99,-122 606.99,-122 606.99,-122 586.23,-122 564.76,-131.85 549.17,-141.1"/>
<polygon fill="black" stroke="black" points="546.89,-138.4 540.28,-146.69 550.61,-144.33 546.89,-138.4"/>
<text text-anchor="middle" x="690.79" y="-125.8" font-family="Helvetica,Arial,sans-serif" font-size="14.00">0</text>
</g>
<!-- 9&#45;&gt;10 -->
<g id="edge30" class="edge">
<title>9&#45;&gt;10</title>
<path fill="none" stroke="black" d="M508.65,-149.69C497.97,-144.67 483.5,-137.86 470.91,-131.94"/>
<polygon fill="black" stroke="black" points="472.27,-128.71 461.73,-127.62 469.29,-135.05 472.27,-128.71"/>
<text text-anchor="middle" x="485.19" y="-144.8" font-family="Helvetica,Arial,sans-serif" font-size="14.00">1</text>
</g>
<!-- 9&#45;&gt;6 -->
<g id="edge28" class="edge">
<title>9&#45;&gt;6</title>
<path fill="none" stroke="black" d="M534.92,-172.54C547.8,-193.16 573.95,-227 606.99,-227 606.99,-227 606.99,-227 771.79,-227 790.95,-227 811.1,-219.02 826.12,-211.28"/>
<polygon fill="black" stroke="black" points="828.09,-214.2 835.19,-206.33 824.73,-208.05 828.09,-214.2"/>
<text text-anchor="middle" x="690.79" y="-230.8" font-family="Helvetica,Arial,sans-serif" font-size="14.00">2</text>
</g>
<!-- 11 -->
<g id="node13" class="node">
<title>11</title>
<ellipse fill="none" stroke="black" cx="607.99" cy="-175" rx="20.6" ry="20.6"/>
<text text-anchor="middle" x="607.99" y="-171.3" font-family="Helvetica,Arial,sans-serif" font-size="14.00">11</text>
</g>
<!-- 9&#45;&gt;11 -->
<g id="edge29" class="edge">
<title>9&#45;&gt;11</title>
<path fill="none" stroke="black" d="M541.49,-164.89C547.48,-167.62 554.51,-170.4 561.19,-172 566.29,-173.22 571.8,-174.01 577.16,-174.52"/>
<polygon fill="black" stroke="black" points="576.95,-178.01 587.16,-175.16 577.41,-171.02 576.95,-178.01"/>
<text text-anchor="middle" x="565.19" y="-177.8" font-family="Helvetica,Arial,sans-serif" font-size="14.00">1</text>
</g>
<!-- 8&#45;&gt;3 -->
<g id="edge24" class="edge">
<title>8&#45;&gt;3</title>
<path fill="none" stroke="black" d="M709.1,-173.44C718.9,-173.7 731.37,-174.01 742.45,-174.3"/>
<polygon fill="black" stroke="black" points="742.44,-177.8 752.53,-174.56 742.62,-170.8 742.44,-177.8"/>
<text text-anchor="middle" x="730.79" y="-178.8" font-family="Helvetica,Arial,sans-serif" font-size="14.00">1</text>
</g>
<!-- 8&#45;&gt;11 -->
<g id="edge25" class="edge">
<title>8&#45;&gt;11</title>
<path fill="none" stroke="black" d="M672.78,-173.42C662.98,-173.66 650.39,-173.98 638.99,-174.26"/>
<polygon fill="black" stroke="black" points="638.87,-170.76 628.96,-174.51 639.05,-177.76 638.87,-170.76"/>
<text text-anchor="middle" x="650.79" y="-178.8" font-family="Helvetica,Arial,sans-serif" font-size="14.00">1</text>
</g>
<!-- 11&#45;&gt;9 -->
<g id="edge27" class="edge">
<title>11&#45;&gt;9</title>
<path fill="none" stroke="black" d="M589.51,-164.69C583.31,-161.58 576.14,-158.57 569.19,-157 564.18,-155.87 558.75,-155.34 553.49,-155.18"/>
<polygon fill="black" stroke="black" points="553.09,-151.69 543.13,-155.29 553.16,-158.69 553.09,-151.69"/>
<text text-anchor="middle" x="565.19" y="-160.8" font-family="Helvetica,Arial,sans-serif" font-size="14.00">1</text>
</g>
<!-- 11&#45;&gt;8 -->
<g id="edge26" class="edge">
<title>11&#45;&gt;8</title>
<path fill="none" stroke="black" d="M625.97,-163.76C632.24,-160.23 639.58,-156.79 646.79,-155 653.65,-153.3 660.83,-154.85 667.32,-157.64"/>
<polygon fill="black" stroke="black" points="665.74,-160.76 676.21,-162.37 669.03,-154.58 665.74,-160.76"/>
<text text-anchor="middle" x="650.79" y="-158.8" font-family="Helvetica,Arial,sans-serif" font-size="14.00">1</text>
</g>
</g>
</svg>
