<?xml version="1.0" encoding="UTF-8" standalone="no"?>
<!DOCTYPE svg PUBLIC "-//W3C//DTD SVG 1.1//EN"
 "http://www.w3.org/Graphics/SVG/1.1/DTD/svg11.dtd">
<!-- Generated by graphviz version 2.43.0 (0)
 -->
<!-- Title: finite_state_machine Pages: 1 -->
<svg width="693pt" height="283pt"
 viewBox="0.00 0.00 692.79 282.80" xmlns="http://www.w3.org/2000/svg" xmlns:xlink="http://www.w3.org/1999/xlink">
<g id="graph0" class="graph" transform="scale(1 1) rotate(0) translate(4 278.8)">
<title>finite_state_machine</title>
<polygon fill="white" stroke="transparent" points="-4,4 -4,-278.8 688.79,-278.8 688.79,4 -4,4"/>
<!-- 0 -->
<g id="node1" class="node">
<title>0</title>
<ellipse fill="none" stroke="black" cx="22" cy="-99" rx="18" ry="18"/>
<ellipse fill="none" stroke="black" cx="22" cy="-99" rx="22" ry="22"/>
<text text-anchor="middle" x="22" y="-95.3" font-family="Helvetica,Arial,sans-serif" font-size="14.00">0</text>
</g>
<!-- 2 -->
<g id="node9" class="node">
<title>2</title>
<ellipse fill="none" stroke="black" cx="160" cy="-20" rx="18" ry="18"/>
<text text-anchor="middle" x="160" y="-16.3" font-family="Helvetica,Arial,sans-serif" font-size="14.00">2</text>
</g>
<!-- 0&#45;&gt;2 -->
<g id="edge14" class="edge">
<title>0&#45;&gt;2</title>
<path fill="none" stroke="black" d="M29.45,-78.2C35.36,-62.82 45.71,-42.75 62,-32 82.62,-18.39 111.17,-16.38 131.95,-17.18"/>
<polygon fill="black" stroke="black" points="131.83,-20.68 142.03,-17.8 132.27,-13.69 131.83,-20.68"/>
<text text-anchor="middle" x="66" y="-35.8" font-family="Helvetica,Arial,sans-serif" font-size="14.00">2</text>
</g>
<!-- 3 -->
<g id="node11" class="node">
<title>3</title>
<ellipse fill="none" stroke="black" cx="106" cy="-170" rx="18" ry="18"/>
<text text-anchor="middle" x="106" y="-166.3" font-family="Helvetica,Arial,sans-serif" font-size="14.00">3</text>
</g>
<!-- 0&#45;&gt;3 -->
<g id="edge15" class="edge">
<title>0&#45;&gt;3</title>
<path fill="none" stroke="black" d="M41.74,-109.22C50.72,-114.54 61.38,-121.5 70,-129 76.45,-134.62 82.76,-141.45 88.2,-147.91"/>
<polygon fill="black" stroke="black" points="85.57,-150.22 94.58,-155.79 91,-145.81 85.57,-150.22"/>
<text text-anchor="middle" x="66" y="-132.8" font-family="Helvetica,Arial,sans-serif" font-size="14.00">0</text>
</g>
<!-- 1 -->
<g id="node13" class="node">
<title>1</title>
<ellipse fill="none" stroke="black" cx="296.8" cy="-100" rx="18" ry="18"/>
<text text-anchor="middle" x="296.8" y="-96.3" font-family="Helvetica,Arial,sans-serif" font-size="14.00">1</text>
</g>
<!-- 0&#45;&gt;1 -->
<g id="edge16" class="edge">
<title>0&#45;&gt;1</title>
<path fill="none" stroke="black" d="M44.41,-99.08C93.52,-99.26 214.27,-99.7 268.57,-99.9"/>
<polygon fill="black" stroke="black" points="268.79,-103.4 278.8,-99.94 268.81,-96.4 268.79,-103.4"/>
<text text-anchor="middle" x="160" y="-103.8" font-family="Helvetica,Arial,sans-serif" font-size="14.00">2</text>
</g>
<!-- 12 -->
<g id="node2" class="node">
<title>12</title>
<ellipse fill="none" stroke="black" cx="659.99" cy="-25" rx="20.63" ry="20.63"/>
<ellipse fill="none" stroke="black" cx="659.99" cy="-25" rx="24.6" ry="24.6"/>
<text text-anchor="middle" x="659.99" y="-21.3" font-family="Helvetica,Arial,sans-serif" font-size="14.00">12</text>
</g>
<!-- 7 -->
<g id="node3" class="node">
<title>7</title>
<ellipse fill="none" stroke="black" cx="487.6" cy="-18" rx="18" ry="18"/>
<text text-anchor="middle" x="487.6" y="-14.3" font-family="Helvetica,Arial,sans-serif" font-size="14.00">7</text>
</g>
<!-- 7&#45;&gt;12 -->
<g id="edge2" class="edge">
<title>7&#45;&gt;12</title>
<path fill="none" stroke="black" d="M505.87,-18.71C533.75,-19.85 589.15,-22.13 625.12,-23.61"/>
<polygon fill="black" stroke="black" points="625.02,-27.11 635.15,-24.02 625.3,-20.11 625.02,-27.11"/>
<text text-anchor="middle" x="570.39" y="-26.8" font-family="Helvetica,Arial,sans-serif" font-size="14.00">2</text>
</g>
<!-- 10 -->
<g id="node4" class="node">
<title>10</title>
<ellipse fill="none" stroke="black" cx="570.39" cy="-72" rx="20.6" ry="20.6"/>
<text text-anchor="middle" x="570.39" y="-68.3" font-family="Helvetica,Arial,sans-serif" font-size="14.00">10</text>
</g>
<!-- 7&#45;&gt;10 -->
<g id="edge1" class="edge">
<title>7&#45;&gt;10</title>
<path fill="none" stroke="black" d="M504.01,-26.33C512.34,-30.99 522.7,-37.04 531.6,-43 536.12,-46.03 540.81,-49.42 545.29,-52.78"/>
<polygon fill="black" stroke="black" points="543.48,-55.8 553.54,-59.12 547.74,-50.25 543.48,-55.8"/>
<text text-anchor="middle" x="527.6" y="-46.8" font-family="Helvetica,Arial,sans-serif" font-size="14.00">1</text>
</g>
<!-- 10&#45;&gt;12 -->
<g id="edge8" class="edge">
<title>10&#45;&gt;12</title>
<path fill="none" stroke="black" d="M589.12,-62.49C600.58,-56.34 615.77,-48.19 629.06,-41.06"/>
<polygon fill="black" stroke="black" points="630.74,-44.13 637.89,-36.32 627.43,-37.96 630.74,-44.13"/>
<text text-anchor="middle" x="613.19" y="-55.8" font-family="Helvetica,Arial,sans-serif" font-size="14.00">6</text>
</g>
<!-- 5 -->
<g id="node5" class="node">
<title>5</title>
<ellipse fill="none" stroke="black" cx="379.6" cy="-33" rx="18" ry="18"/>
<text text-anchor="middle" x="379.6" y="-29.3" font-family="Helvetica,Arial,sans-serif" font-size="14.00">5</text>
</g>
<!-- 5&#45;&gt;7 -->
<g id="edge3" class="edge">
<title>5&#45;&gt;7</title>
<path fill="none" stroke="black" d="M397.63,-30.59C414.32,-28.23 440.02,-24.59 459.51,-21.83"/>
<polygon fill="black" stroke="black" points="460.2,-25.27 469.61,-20.4 459.22,-18.34 460.2,-25.27"/>
<text text-anchor="middle" x="433.6" y="-31.8" font-family="Helvetica,Arial,sans-serif" font-size="14.00">1</text>
</g>
<!-- 5&#45;&gt;10 -->
<g id="edge4" class="edge">
<title>5&#45;&gt;10</title>
<path fill="none" stroke="black" d="M396.37,-40.16C402.3,-42.63 409.16,-45.21 415.6,-47 457.57,-58.65 507.58,-65.54 538.92,-69.04"/>
<polygon fill="black" stroke="black" points="538.87,-72.56 549.18,-70.14 539.61,-65.6 538.87,-72.56"/>
<text text-anchor="middle" x="487.6" y="-68.8" font-family="Helvetica,Arial,sans-serif" font-size="14.00">1</text>
</g>
<!-- 9 -->
<g id="node6" class="node">
<title>9</title>
<ellipse fill="none" stroke="black" cx="379.6" cy="-200" rx="18" ry="18"/>
<text text-anchor="middle" x="379.6" y="-196.3" font-family="Helvetica,Arial,sans-serif" font-size="14.00">9</text>
</g>
<!-- 9&#45;&gt;10 -->
<g id="edge5" class="edge">
<title>9&#45;&gt;10</title>
<path fill="none" stroke="black" d="M396.2,-192.28C420.47,-180.01 468.34,-154.68 505.6,-128 520.34,-117.44 535.65,-104.1 547.57,-93.08"/>
<polygon fill="black" stroke="black" points="549.98,-95.62 554.88,-86.23 545.19,-90.52 549.98,-95.62"/>
<text text-anchor="middle" x="487.6" y="-153.8" font-family="Helvetica,Arial,sans-serif" font-size="14.00">4</text>
</g>
<!-- 11 -->
<g id="node7" class="node">
<title>11</title>
<ellipse fill="none" stroke="black" cx="296.8" cy="-254" rx="20.6" ry="20.6"/>
<text text-anchor="middle" x="296.8" y="-250.3" font-family="Helvetica,Arial,sans-serif" font-size="14.00">11</text>
</g>
<!-- 11&#45;&gt;9 -->
<g id="edge6" class="edge">
<title>11&#45;&gt;9</title>
<path fill="none" stroke="black" d="M314.54,-242.81C326.48,-234.83 342.68,-224 355.81,-215.23"/>
<polygon fill="black" stroke="black" points="357.94,-218.02 364.31,-209.55 354.05,-212.2 357.94,-218.02"/>
<text text-anchor="middle" x="339.6" y="-231.8" font-family="Helvetica,Arial,sans-serif" font-size="14.00">2</text>
</g>
<!-- 8 -->
<g id="node8" class="node">
<title>8</title>
<ellipse fill="none" stroke="black" cx="214" cy="-237" rx="18" ry="18"/>
<text text-anchor="middle" x="214" y="-233.3" font-family="Helvetica,Arial,sans-serif" font-size="14.00">8</text>
</g>
<!-- 8&#45;&gt;11 -->
<g id="edge7" class="edge">
<title>8&#45;&gt;11</title>
<path fill="none" stroke="black" d="M231.74,-240.52C241.75,-242.63 254.75,-245.36 266.43,-247.82"/>
<polygon fill="black" stroke="black" points="265.73,-251.25 276.23,-249.88 267.17,-244.4 265.73,-251.25"/>
<text text-anchor="middle" x="254" y="-249.8" font-family="Helvetica,Arial,sans-serif" font-size="14.00">2</text>
</g>
<!-- 2&#45;&gt;5 -->
<g id="edge9" class="edge">
<title>2&#45;&gt;5</title>
<path fill="none" stroke="black" d="M178.07,-21.02C215.73,-23.27 306.17,-28.67 351.59,-31.39"/>
<polygon fill="black" stroke="black" points="351.41,-34.88 361.6,-31.98 351.83,-27.89 351.41,-34.88"/>
<text text-anchor="middle" x="254" y="-29.8" font-family="Helvetica,Arial,sans-serif" font-size="14.00">2</text>
</g>
<!-- 4 -->
<g id="node10" class="node">
<title>4</title>
<ellipse fill="none" stroke="black" cx="433.6" cy="-121" rx="18" ry="18"/>
<text text-anchor="middle" x="433.6" y="-117.3" font-family="Helvetica,Arial,sans-serif" font-size="14.00">4</text>
</g>
<!-- 4&#45;&gt;10 -->
<g id="edge10" class="edge">
<title>4&#45;&gt;10</title>
<path fill="none" stroke="black" d="M450.74,-115.22C470.01,-108.31 503.18,-96.39 531.6,-86 534.69,-84.87 537.91,-83.68 541.13,-82.5"/>
<polygon fill="black" stroke="black" points="542.4,-85.76 550.56,-79.01 539.97,-79.2 542.4,-85.76"/>
<text text-anchor="middle" x="487.6" y="-112.8" font-family="Helvetica,Arial,sans-serif" font-size="14.00">2</text>
</g>
<!-- 3&#45;&gt;0 -->
<g id="edge12" class="edge">
<title>3&#45;&gt;0</title>
<path fill="none" stroke="black" d="M88.91,-163.74C80.39,-159.95 70.05,-154.58 62,-148 54.21,-141.63 46.96,-133.46 40.87,-125.63"/>
<polygon fill="black" stroke="black" points="43.52,-123.32 34.75,-117.36 37.89,-127.48 43.52,-123.32"/>
<text text-anchor="middle" x="66" y="-156.8" font-family="Helvetica,Arial,sans-serif" font-size="14.00">2</text>
</g>
<!-- 3&#45;&gt;8 -->
<g id="edge11" class="edge">
<title>3&#45;&gt;8</title>
<path fill="none" stroke="black" d="M121.74,-179.32C139.38,-190.47 169.13,-209.27 189.85,-222.37"/>
<polygon fill="black" stroke="black" points="188.06,-225.38 198.39,-227.76 191.8,-219.46 188.06,-225.38"/>
<text text-anchor="middle" x="160" y="-216.8" font-family="Helvetica,Arial,sans-serif" font-size="14.00">2</text>
</g>
<!-- 6 -->
<g id="node12" class="node">
<title>6</title>
<ellipse fill="none" stroke="black" cx="214" cy="-170" rx="18" ry="18"/>
<text text-anchor="middle" x="214" y="-166.3" font-family="Helvetica,Arial,sans-serif" font-size="14.00">6</text>
</g>
<!-- 3&#45;&gt;6 -->
<g id="edge13" class="edge">
<title>3&#45;&gt;6</title>
<path fill="none" stroke="black" d="M124.03,-170C140.62,-170 166.12,-170 185.57,-170"/>
<polygon fill="black" stroke="black" points="185.66,-173.5 195.66,-170 185.66,-166.5 185.66,-173.5"/>
<text text-anchor="middle" x="160" y="-173.8" font-family="Helvetica,Arial,sans-serif" font-size="14.00">0</text>
</g>
<!-- 6&#45;&gt;9 -->
<g id="edge21" class="edge">
<title>6&#45;&gt;9</title>
<path fill="none" stroke="black" d="M231.89,-173.1C260.18,-178.28 317.37,-188.77 351.39,-195.01"/>
<polygon fill="black" stroke="black" points="351.08,-198.51 361.55,-196.87 352.35,-191.63 351.08,-198.51"/>
<text text-anchor="middle" x="296.8" y="-191.8" font-family="Helvetica,Arial,sans-serif" font-size="14.00">2</text>
</g>
<!-- 6&#45;&gt;3 -->
<g id="edge22" class="edge">
<title>6&#45;&gt;3</title>
<path fill="none" stroke="black" d="M198.69,-160.13C192.6,-156.51 185.24,-152.84 178,-151 162.49,-147.06 157.51,-147.06 142,-151 138.04,-152.01 134.05,-153.56 130.24,-155.35"/>
<polygon fill="black" stroke="black" points="128.48,-152.33 121.31,-160.13 131.78,-158.5 128.48,-152.33"/>
<text text-anchor="middle" x="160" y="-154.8" font-family="Helvetica,Arial,sans-serif" font-size="14.00">2</text>
</g>
<!-- 6&#45;&gt;1 -->
<g id="edge23" class="edge">
<title>6&#45;&gt;1</title>
<path fill="none" stroke="black" d="M231.1,-163.75C239.63,-159.97 249.97,-154.61 258,-148 266.39,-141.1 274.12,-132.04 280.37,-123.65"/>
<polygon fill="black" stroke="black" points="283.38,-125.45 286.31,-115.27 277.67,-121.4 283.38,-125.45"/>
<text text-anchor="middle" x="254" y="-156.8" font-family="Helvetica,Arial,sans-serif" font-size="14.00">2</text>
</g>
<!-- 1&#45;&gt;0 -->
<g id="edge19" class="edge">
<title>1&#45;&gt;0</title>
<path fill="none" stroke="black" d="M279.12,-96.45C256.39,-91.8 214.34,-83.91 178,-81 134.57,-77.52 84.54,-85.52 53.34,-91.94"/>
<polygon fill="black" stroke="black" points="52.56,-88.53 43.51,-94.04 54.02,-95.37 52.56,-88.53"/>
<text text-anchor="middle" x="160" y="-84.8" font-family="Helvetica,Arial,sans-serif" font-size="14.00">2</text>
</g>
<!-- 1&#45;&gt;5 -->
<g id="edge17" class="edge">
<title>1&#45;&gt;5</title>
<path fill="none" stroke="black" d="M311.14,-88.94C323.65,-78.56 342.58,-62.87 357.2,-50.74"/>
<polygon fill="black" stroke="black" points="359.77,-53.16 365.23,-44.08 355.3,-47.77 359.77,-53.16"/>
<text text-anchor="middle" x="339.6" y="-72.8" font-family="Helvetica,Arial,sans-serif" font-size="14.00">2</text>
</g>
<!-- 1&#45;&gt;4 -->
<g id="edge18" class="edge">
<title>1&#45;&gt;4</title>
<path fill="none" stroke="black" d="M314.87,-102.66C337.76,-106.23 378.64,-112.6 405.7,-116.81"/>
<polygon fill="black" stroke="black" points="405.24,-120.28 415.66,-118.36 406.32,-113.36 405.24,-120.28"/>
<text text-anchor="middle" x="339.6" y="-110.8" font-family="Helvetica,Arial,sans-serif" font-size="14.00">2</text>
</g>
<!-- 1&#45;&gt;6 -->
<g id="edge20" class="edge">
<title>1&#45;&gt;6</title>
<path fill="none" stroke="black" d="M281.24,-109.45C271.97,-115.72 259.88,-124.35 250,-133 244.37,-137.93 238.63,-143.64 233.48,-149.09"/>
<polygon fill="black" stroke="black" points="230.63,-147.02 226.42,-156.74 235.77,-151.76 230.63,-147.02"/>
<text text-anchor="middle" x="254" y="-136.8" font-family="Helvetica,Arial,sans-serif" font-size="14.00">0</text>
</g>
</g>
</svg>
