<?xml version="1.0" encoding="UTF-8" standalone="no"?>
<!DOCTYPE svg PUBLIC "-//W3C//DTD SVG 1.1//EN"
 "http://www.w3.org/Graphics/SVG/1.1/DTD/svg11.dtd">
<!-- Generated by graphviz version 2.43.0 (0)
 -->
<!-- Title: finite_state_machine Pages: 1 -->
<svg width="717pt" height="509pt"
 viewBox="0.00 0.00 716.79 509.00" xmlns="http://www.w3.org/2000/svg" xmlns:xlink="http://www.w3.org/1999/xlink">
<g id="graph0" class="graph" transform="scale(1 1) rotate(0) translate(4 505)">
<title>finite_state_machine</title>
<polygon fill="white" stroke="transparent" points="-4,4 -4,-505 712.79,-505 712.79,4 -4,4"/>
<!-- 0 -->
<g id="node1" class="node">
<title>0</title>
<ellipse fill="none" stroke="black" cx="22" cy="-89" rx="18" ry="18"/>
<ellipse fill="none" stroke="black" cx="22" cy="-89" rx="22" ry="22"/>
<text text-anchor="middle" x="22" y="-85.3" font-family="Helvetica,Arial,sans-serif" font-size="14.00">0</text>
</g>
<!-- 1 -->
<g id="node6" class="node">
<title>1</title>
<ellipse fill="none" stroke="black" cx="106" cy="-297" rx="18" ry="18"/>
<text text-anchor="middle" x="106" y="-293.3" font-family="Helvetica,Arial,sans-serif" font-size="14.00">1</text>
</g>
<!-- 0&#45;&gt;1 -->
<g id="edge17" class="edge">
<title>0&#45;&gt;1</title>
<path fill="none" stroke="black" d="M31.01,-109.32C45.98,-147.29 78.16,-228.92 94.71,-270.9"/>
<polygon fill="black" stroke="black" points="91.54,-272.4 98.47,-280.42 98.05,-269.84 91.54,-272.4"/>
<text text-anchor="middle" x="66" y="-208.8" font-family="Helvetica,Arial,sans-serif" font-size="14.00">4</text>
</g>
<!-- 3 -->
<g id="node11" class="node">
<title>3</title>
<ellipse fill="none" stroke="black" cx="525.19" cy="-366" rx="18" ry="18"/>
<text text-anchor="middle" x="525.19" y="-362.3" font-family="Helvetica,Arial,sans-serif" font-size="14.00">3</text>
</g>
<!-- 0&#45;&gt;3 -->
<g id="edge18" class="edge">
<title>0&#45;&gt;3</title>
<path fill="none" stroke="black" d="M39.86,-75.92C55.75,-64.93 80.68,-51 105,-51 105,-51 105,-51 446.19,-51 504.98,-51 519.75,-260.32 523.21,-337.7"/>
<polygon fill="black" stroke="black" points="519.71,-337.86 523.62,-347.7 526.71,-337.57 519.71,-337.86"/>
<text text-anchor="middle" x="268.8" y="-54.8" font-family="Helvetica,Arial,sans-serif" font-size="14.00">0</text>
</g>
<!-- 2 -->
<g id="node12" class="node">
<title>2</title>
<ellipse fill="none" stroke="black" cx="268.8" cy="-137" rx="18" ry="18"/>
<text text-anchor="middle" x="268.8" y="-133.3" font-family="Helvetica,Arial,sans-serif" font-size="14.00">2</text>
</g>
<!-- 0&#45;&gt;2 -->
<g id="edge19" class="edge">
<title>0&#45;&gt;2</title>
<path fill="none" stroke="black" d="M43.91,-86.07C82.72,-81.6 167.59,-76.45 230,-106 236.24,-108.96 242.33,-113.16 247.74,-117.53"/>
<polygon fill="black" stroke="black" points="245.76,-120.44 255.6,-124.37 250.35,-115.16 245.76,-120.44"/>
<text text-anchor="middle" x="146" y="-88.8" font-family="Helvetica,Arial,sans-serif" font-size="14.00">0</text>
</g>
<!-- 12 -->
<g id="node2" class="node">
<title>12</title>
<ellipse fill="none" stroke="black" cx="358.39" cy="-299" rx="20.63" ry="20.63"/>
<ellipse fill="none" stroke="black" cx="358.39" cy="-299" rx="24.6" ry="24.6"/>
<text text-anchor="middle" x="358.39" y="-295.3" font-family="Helvetica,Arial,sans-serif" font-size="14.00">12</text>
</g>
<!-- 10 -->
<g id="node10" class="node">
<title>10</title>
<ellipse fill="none" stroke="black" cx="268.8" cy="-343" rx="20.6" ry="20.6"/>
<text text-anchor="middle" x="268.8" y="-339.3" font-family="Helvetica,Arial,sans-serif" font-size="14.00">10</text>
</g>
<!-- 12&#45;&gt;10 -->
<g id="edge28" class="edge">
<title>12&#45;&gt;10</title>
<path fill="none" stroke="black" d="M333.68,-296.84C325.1,-296.97 315.58,-298.21 307.6,-302 299.97,-305.62 293.15,-311.53 287.48,-317.75"/>
<polygon fill="black" stroke="black" points="284.62,-315.71 280.93,-325.64 290.01,-320.18 284.62,-315.71"/>
<text text-anchor="middle" x="311.6" y="-305.8" font-family="Helvetica,Arial,sans-serif" font-size="14.00">3</text>
</g>
<!-- 7 -->
<g id="node13" class="node">
<title>7</title>
<ellipse fill="none" stroke="black" cx="445.19" cy="-279" rx="18" ry="18"/>
<text text-anchor="middle" x="445.19" y="-275.3" font-family="Helvetica,Arial,sans-serif" font-size="14.00">7</text>
</g>
<!-- 12&#45;&gt;7 -->
<g id="edge29" class="edge">
<title>12&#45;&gt;7</title>
<path fill="none" stroke="black" d="M379.37,-285.35C386.01,-281.55 393.65,-277.94 401.19,-276 406.18,-274.72 411.6,-274.34 416.86,-274.48"/>
<polygon fill="black" stroke="black" points="416.96,-278 427.22,-275.35 417.55,-271.02 416.96,-278"/>
<text text-anchor="middle" x="405.19" y="-279.8" font-family="Helvetica,Arial,sans-serif" font-size="14.00">1</text>
</g>
<!-- 11 -->
<g id="node3" class="node">
<title>11</title>
<ellipse fill="none" stroke="black" cx="687.99" cy="-463" rx="20.6" ry="20.6"/>
<text text-anchor="middle" x="687.99" y="-459.3" font-family="Helvetica,Arial,sans-serif" font-size="14.00">11</text>
</g>
<!-- 9 -->
<g id="node4" class="node">
<title>9</title>
<ellipse fill="none" stroke="black" cx="358.39" cy="-415" rx="18" ry="18"/>
<text text-anchor="middle" x="358.39" y="-411.3" font-family="Helvetica,Arial,sans-serif" font-size="14.00">9</text>
</g>
<!-- 11&#45;&gt;9 -->
<g id="edge1" class="edge">
<title>11&#45;&gt;9</title>
<path fill="none" stroke="black" d="M668.8,-471.3C652.69,-477.89 628.36,-486 606.19,-486 444.19,-486 444.19,-486 444.19,-486 414.12,-486 389.1,-459.42 374.21,-438.79"/>
<polygon fill="black" stroke="black" points="377.01,-436.68 368.47,-430.41 371.23,-440.63 377.01,-436.68"/>
<text text-anchor="middle" x="525.19" y="-489.8" font-family="Helvetica,Arial,sans-serif" font-size="14.00">2</text>
</g>
<!-- 6 -->
<g id="node8" class="node">
<title>6</title>
<ellipse fill="none" stroke="black" cx="445.19" cy="-404" rx="18" ry="18"/>
<text text-anchor="middle" x="445.19" y="-400.3" font-family="Helvetica,Arial,sans-serif" font-size="14.00">6</text>
</g>
<!-- 9&#45;&gt;6 -->
<g id="edge12" class="edge">
<title>9&#45;&gt;6</title>
<path fill="none" stroke="black" d="M376.46,-413.04C386.08,-411.91 398.31,-410.43 409.19,-409 411.75,-408.66 414.41,-408.3 417.07,-407.93"/>
<polygon fill="black" stroke="black" points="417.7,-411.38 427.11,-406.52 416.72,-404.45 417.7,-411.38"/>
<text text-anchor="middle" x="405.19" y="-412.8" font-family="Helvetica,Arial,sans-serif" font-size="14.00">2</text>
</g>
<!-- 9&#45;&gt;10 -->
<g id="edge13" class="edge">
<title>9&#45;&gt;10</title>
<path fill="none" stroke="black" d="M343.88,-403.89C330.45,-392.86 309.59,-375.71 293.42,-362.42"/>
<polygon fill="black" stroke="black" points="295.41,-359.52 285.46,-355.87 290.96,-364.93 295.41,-359.52"/>
<text text-anchor="middle" x="311.6" y="-382.8" font-family="Helvetica,Arial,sans-serif" font-size="14.00">2</text>
</g>
<!-- 8 -->
<g id="node5" class="node">
<title>8</title>
<ellipse fill="none" stroke="black" cx="605.19" cy="-419" rx="18" ry="18"/>
<text text-anchor="middle" x="605.19" y="-415.3" font-family="Helvetica,Arial,sans-serif" font-size="14.00">8</text>
</g>
<!-- 8&#45;&gt;11 -->
<g id="edge2" class="edge">
<title>8&#45;&gt;11</title>
<path fill="none" stroke="black" d="M621.39,-427.28C632.35,-433.25 647.44,-441.46 660.38,-448.51"/>
<polygon fill="black" stroke="black" points="658.87,-451.67 669.33,-453.38 662.22,-445.53 658.87,-451.67"/>
<text text-anchor="middle" x="645.19" y="-445.8" font-family="Helvetica,Arial,sans-serif" font-size="14.00">2</text>
</g>
<!-- 5 -->
<g id="node7" class="node">
<title>5</title>
<ellipse fill="none" stroke="black" cx="186" cy="-246" rx="18" ry="18"/>
<text text-anchor="middle" x="186" y="-242.3" font-family="Helvetica,Arial,sans-serif" font-size="14.00">5</text>
</g>
<!-- 1&#45;&gt;5 -->
<g id="edge3" class="edge">
<title>1&#45;&gt;5</title>
<path fill="none" stroke="black" d="M121.67,-287.41C133,-280 148.89,-269.61 161.92,-261.09"/>
<polygon fill="black" stroke="black" points="163.94,-263.95 170.39,-255.55 160.11,-258.09 163.94,-263.95"/>
<text text-anchor="middle" x="146" y="-276.8" font-family="Helvetica,Arial,sans-serif" font-size="14.00">2</text>
</g>
<!-- 1&#45;&gt;6 -->
<g id="edge4" class="edge">
<title>1&#45;&gt;6</title>
<path fill="none" stroke="black" d="M107.42,-315.18C109.45,-357.88 121,-461 185,-461 185,-461 185,-461 359.39,-461 385.92,-461 410.39,-441.55 426.15,-425.38"/>
<polygon fill="black" stroke="black" points="428.94,-427.52 433.17,-417.8 423.81,-422.76 428.94,-427.52"/>
<text text-anchor="middle" x="268.8" y="-464.8" font-family="Helvetica,Arial,sans-serif" font-size="14.00">2</text>
</g>
<!-- 4 -->
<g id="node9" class="node">
<title>4</title>
<ellipse fill="none" stroke="black" cx="186" cy="-328" rx="18" ry="18"/>
<text text-anchor="middle" x="186" y="-324.3" font-family="Helvetica,Arial,sans-serif" font-size="14.00">4</text>
</g>
<!-- 1&#45;&gt;4 -->
<g id="edge5" class="edge">
<title>1&#45;&gt;4</title>
<path fill="none" stroke="black" d="M123.16,-303.42C133.69,-307.61 147.65,-313.15 159.64,-317.92"/>
<polygon fill="black" stroke="black" points="158.54,-321.25 169.13,-321.69 161.13,-314.75 158.54,-321.25"/>
<text text-anchor="middle" x="146" y="-316.8" font-family="Helvetica,Arial,sans-serif" font-size="14.00">2</text>
</g>
<!-- 5&#45;&gt;10 -->
<g id="edge22" class="edge">
<title>5&#45;&gt;10</title>
<path fill="none" stroke="black" d="M196.89,-260.98C203.63,-270.9 212.94,-284.04 222,-295 229.38,-303.92 238.02,-313.23 245.8,-321.26"/>
<polygon fill="black" stroke="black" points="243.7,-324.12 253.21,-328.79 248.69,-319.21 243.7,-324.12"/>
<text text-anchor="middle" x="226" y="-306.8" font-family="Helvetica,Arial,sans-serif" font-size="14.00">0</text>
</g>
<!-- 5&#45;&gt;2 -->
<g id="edge23" class="edge">
<title>5&#45;&gt;2</title>
<path fill="none" stroke="black" d="M196.04,-231.01C202.85,-219.99 212.59,-204.77 222,-192 230.52,-180.43 240.69,-168.09 249.27,-158.04"/>
<polygon fill="black" stroke="black" points="252.16,-160.06 256.04,-150.2 246.86,-155.48 252.16,-160.06"/>
<text text-anchor="middle" x="226" y="-195.8" font-family="Helvetica,Arial,sans-serif" font-size="14.00">2</text>
</g>
<!-- 5&#45;&gt;7 -->
<g id="edge24" class="edge">
<title>5&#45;&gt;7</title>
<path fill="none" stroke="black" d="M202.11,-237.44C225.81,-224.99 273.39,-203.89 315.6,-209 358.12,-214.15 373.5,-208.32 409.19,-232 417.78,-237.7 425.06,-246.25 430.71,-254.51"/>
<polygon fill="black" stroke="black" points="427.9,-256.61 436.2,-263.2 433.82,-252.87 427.9,-256.61"/>
<text text-anchor="middle" x="311.6" y="-212.8" font-family="Helvetica,Arial,sans-serif" font-size="14.00">0</text>
</g>
<!-- 6&#45;&gt;9 -->
<g id="edge11" class="edge">
<title>6&#45;&gt;9</title>
<path fill="none" stroke="black" d="M428.66,-396.88C420.48,-394.01 410.29,-391.84 401.19,-394 395.02,-395.46 388.72,-397.99 382.94,-400.8"/>
<polygon fill="black" stroke="black" points="381.02,-397.85 373.84,-405.64 384.31,-404.03 381.02,-397.85"/>
<text text-anchor="middle" x="405.19" y="-397.8" font-family="Helvetica,Arial,sans-serif" font-size="14.00">0</text>
</g>
<!-- 6&#45;&gt;3 -->
<g id="edge10" class="edge">
<title>6&#45;&gt;3</title>
<path fill="none" stroke="black" d="M461.6,-396.49C472.5,-391.18 487.33,-383.96 499.82,-377.87"/>
<polygon fill="black" stroke="black" points="501.36,-381.02 508.81,-373.49 498.29,-374.73 501.36,-381.02"/>
<text text-anchor="middle" x="485.19" y="-389.8" font-family="Helvetica,Arial,sans-serif" font-size="14.00">2</text>
</g>
<!-- 4&#45;&gt;10 -->
<g id="edge6" class="edge">
<title>4&#45;&gt;10</title>
<path fill="none" stroke="black" d="M203.74,-331.11C213.65,-332.95 226.49,-335.33 238.07,-337.48"/>
<polygon fill="black" stroke="black" points="237.76,-340.98 248.23,-339.37 239.04,-334.1 237.76,-340.98"/>
<text text-anchor="middle" x="226" y="-338.8" font-family="Helvetica,Arial,sans-serif" font-size="14.00">2</text>
</g>
<!-- 10&#45;&gt;12 -->
<g id="edge16" class="edge">
<title>10&#45;&gt;12</title>
<path fill="none" stroke="black" d="M287.95,-333.88C299.16,-328.25 313.83,-320.88 326.8,-314.37"/>
<polygon fill="black" stroke="black" points="328.5,-317.43 335.87,-309.81 325.36,-311.17 328.5,-317.43"/>
<text text-anchor="middle" x="311.6" y="-326.8" font-family="Helvetica,Arial,sans-serif" font-size="14.00">3</text>
</g>
<!-- 10&#45;&gt;9 -->
<g id="edge14" class="edge">
<title>10&#45;&gt;9</title>
<path fill="none" stroke="black" d="M278.65,-361.65C285.16,-373.55 295.04,-388.48 307.6,-398 314.35,-403.12 322.75,-406.77 330.72,-409.33"/>
<polygon fill="black" stroke="black" points="329.85,-412.72 340.43,-412.03 331.73,-405.98 329.85,-412.72"/>
<text text-anchor="middle" x="311.6" y="-405.8" font-family="Helvetica,Arial,sans-serif" font-size="14.00">2</text>
</g>
<!-- 10&#45;&gt;5 -->
<g id="edge15" class="edge">
<title>10&#45;&gt;5</title>
<path fill="none" stroke="black" d="M258.96,-324.46C252.13,-311.25 241.87,-293.51 230,-280 224.17,-273.37 216.91,-267.07 210.03,-261.75"/>
<polygon fill="black" stroke="black" points="211.78,-258.68 201.65,-255.56 207.62,-264.32 211.78,-258.68"/>
<text text-anchor="middle" x="226" y="-283.8" font-family="Helvetica,Arial,sans-serif" font-size="14.00">1</text>
</g>
<!-- 3&#45;&gt;0 -->
<g id="edge8" class="edge">
<title>3&#45;&gt;0</title>
<path fill="none" stroke="black" d="M524,-348.02C523.09,-287.48 517.94,-91.81 489.19,-37 477.48,-14.67 471.4,0 446.19,0 105,0 105,0 105,0 71.88,0 48.46,-33.75 35.35,-59.68"/>
<polygon fill="black" stroke="black" points="32.14,-58.27 30.98,-68.8 38.45,-61.29 32.14,-58.27"/>
<text text-anchor="middle" x="268.8" y="-3.8" font-family="Helvetica,Arial,sans-serif" font-size="14.00">2</text>
</g>
<!-- 3&#45;&gt;8 -->
<g id="edge7" class="edge">
<title>3&#45;&gt;8</title>
<path fill="none" stroke="black" d="M540.5,-375.72C551.93,-383.49 568.18,-394.53 581.4,-403.51"/>
<polygon fill="black" stroke="black" points="579.74,-406.62 589.98,-409.34 583.67,-400.83 579.74,-406.62"/>
<text text-anchor="middle" x="565.19" y="-397.8" font-family="Helvetica,Arial,sans-serif" font-size="14.00">2</text>
</g>
<!-- 3&#45;&gt;6 -->
<g id="edge9" class="edge">
<title>3&#45;&gt;6</title>
<path fill="none" stroke="black" d="M507.2,-363.44C499.01,-362.93 489.24,-363.42 481.19,-367 473.97,-370.21 467.53,-375.69 462.2,-381.46"/>
<polygon fill="black" stroke="black" points="459.35,-379.4 455.65,-389.33 464.74,-383.88 459.35,-379.4"/>
<text text-anchor="middle" x="485.19" y="-370.8" font-family="Helvetica,Arial,sans-serif" font-size="14.00">0</text>
</g>
<!-- 2&#45;&gt;0 -->
<g id="edge20" class="edge">
<title>2&#45;&gt;0</title>
<path fill="none" stroke="black" d="M250.91,-134.28C215.66,-128.53 131.72,-114.36 62,-99 59.18,-98.38 56.26,-97.7 53.34,-97"/>
<polygon fill="black" stroke="black" points="54.13,-93.58 43.58,-94.56 52.44,-100.38 54.13,-93.58"/>
<text text-anchor="middle" x="146" y="-119.8" font-family="Helvetica,Arial,sans-serif" font-size="14.00">2</text>
</g>
<!-- 2&#45;&gt;5 -->
<g id="edge21" class="edge">
<title>2&#45;&gt;5</title>
<path fill="none" stroke="black" d="M250.68,-139.77C241.16,-142.1 229.71,-146.35 222,-154 204.64,-171.22 195.75,-197.92 191.29,-218.13"/>
<polygon fill="black" stroke="black" points="187.84,-217.54 189.34,-228.03 194.71,-218.89 187.84,-217.54"/>
<text text-anchor="middle" x="226" y="-157.8" font-family="Helvetica,Arial,sans-serif" font-size="14.00">0</text>
</g>
<!-- 7&#45;&gt;12 -->
<g id="edge27" class="edge">
<title>7&#45;&gt;12</title>
<path fill="none" stroke="black" d="M428.94,-287.37C422.95,-290.28 415.92,-293.25 409.19,-295 404.13,-296.32 398.69,-297.24 393.32,-297.87"/>
<polygon fill="black" stroke="black" points="392.88,-294.4 383.23,-298.77 393.51,-301.37 392.88,-294.4"/>
<text text-anchor="middle" x="405.19" y="-299.8" font-family="Helvetica,Arial,sans-serif" font-size="14.00">1</text>
</g>
<!-- 7&#45;&gt;5 -->
<g id="edge26" class="edge">
<title>7&#45;&gt;5</title>
<path fill="none" stroke="black" d="M427.76,-274.45C415.56,-271.27 398.46,-267.2 383.19,-265 323.23,-256.35 252.38,-250.58 214.38,-247.84"/>
<polygon fill="black" stroke="black" points="214.34,-244.33 204.12,-247.12 213.85,-251.31 214.34,-244.33"/>
<text text-anchor="middle" x="311.6" y="-259.8" font-family="Helvetica,Arial,sans-serif" font-size="14.00">1</text>
</g>
<!-- 7&#45;&gt;10 -->
<g id="edge25" class="edge">
<title>7&#45;&gt;10</title>
<path fill="none" stroke="black" d="M433.59,-292.89C422.62,-306.02 404.17,-324.89 383.19,-333 356.34,-343.38 323.32,-345.19 299.86,-344.81"/>
<polygon fill="black" stroke="black" points="299.91,-341.31 289.81,-344.51 299.7,-348.31 299.91,-341.31"/>
<text text-anchor="middle" x="358.39" y="-346.8" font-family="Helvetica,Arial,sans-serif" font-size="14.00">1</text>
</g>
</g>
</svg>
