<?xml version="1.0" encoding="UTF-8" standalone="no"?>
<!DOCTYPE svg PUBLIC "-//W3C//DTD SVG 1.1//EN"
 "http://www.w3.org/Graphics/SVG/1.1/DTD/svg11.dtd">
<!-- Generated by graphviz version 2.43.0 (0)
 -->
<!-- Title: finite_state_machine Pages: 1 -->
<svg width="905pt" height="399pt"
 viewBox="0.00 0.00 904.79 399.00" xmlns="http://www.w3.org/2000/svg" xmlns:xlink="http://www.w3.org/1999/xlink">
<g id="graph0" class="graph" transform="scale(1 1) rotate(0) translate(4 395)">
<title>finite_state_machine</title>
<polygon fill="white" stroke="transparent" points="-4,4 -4,-395 900.79,-395 900.79,4 -4,4"/>
<!-- 0 -->
<g id="node1" class="node">
<title>0</title>
<ellipse fill="none" stroke="black" cx="22" cy="-89" rx="18" ry="18"/>
<ellipse fill="none" stroke="black" cx="22" cy="-89" rx="22" ry="22"/>
<text text-anchor="middle" x="22" y="-85.3" font-family="Helvetica,Arial,sans-serif" font-size="14.00">0</text>
</g>
<!-- 1 -->
<g id="node8" class="node">
<title>1</title>
<ellipse fill="none" stroke="black" cx="106" cy="-213" rx="18" ry="18"/>
<text text-anchor="middle" x="106" y="-209.3" font-family="Helvetica,Arial,sans-serif" font-size="14.00">1</text>
</g>
<!-- 0&#45;&gt;1 -->
<g id="edge16" class="edge">
<title>0&#45;&gt;1</title>
<path fill="none" stroke="black" d="M34.92,-107.03C49.42,-128.95 73.9,-165.97 89.75,-189.94"/>
<polygon fill="black" stroke="black" points="86.93,-192.02 95.37,-198.43 92.77,-188.16 86.93,-192.02"/>
<text text-anchor="middle" x="66" y="-161.8" font-family="Helvetica,Arial,sans-serif" font-size="14.00">4</text>
</g>
<!-- 3 -->
<g id="node12" class="node">
<title>3</title>
<ellipse fill="none" stroke="black" cx="713.19" cy="-112" rx="18" ry="18"/>
<text text-anchor="middle" x="713.19" y="-108.3" font-family="Helvetica,Arial,sans-serif" font-size="14.00">3</text>
</g>
<!-- 0&#45;&gt;3 -->
<g id="edge17" class="edge">
<title>0&#45;&gt;3</title>
<path fill="none" stroke="black" d="M30.98,-68.8C42.85,-42.55 67.81,0 105,0 105,0 105,0 634.19,0 675.24,0 696.46,-51.3 705.88,-84.46"/>
<polygon fill="black" stroke="black" points="702.59,-85.73 708.54,-94.5 709.36,-83.94 702.59,-85.73"/>
<text text-anchor="middle" x="380.8" y="-3.8" font-family="Helvetica,Arial,sans-serif" font-size="14.00">0</text>
</g>
<!-- 2 -->
<g id="node13" class="node">
<title>2</title>
<ellipse fill="none" stroke="black" cx="294" cy="-125" rx="18" ry="18"/>
<text text-anchor="middle" x="294" y="-121.3" font-family="Helvetica,Arial,sans-serif" font-size="14.00">2</text>
</g>
<!-- 0&#45;&gt;2 -->
<g id="edge18" class="edge">
<title>0&#45;&gt;2</title>
<path fill="none" stroke="black" d="M44.1,-87.11C86.09,-84.08 182.53,-80.81 258,-106 261.87,-107.29 265.82,-109 269.61,-110.86"/>
<polygon fill="black" stroke="black" points="268.07,-114.01 278.53,-115.66 271.38,-107.84 268.07,-114.01"/>
<text text-anchor="middle" x="146" y="-90.8" font-family="Helvetica,Arial,sans-serif" font-size="14.00">1</text>
</g>
<!-- 12 -->
<g id="node2" class="node">
<title>12</title>
<ellipse fill="none" stroke="black" cx="380.8" cy="-242" rx="20.63" ry="20.63"/>
<ellipse fill="none" stroke="black" cx="380.8" cy="-242" rx="24.6" ry="24.6"/>
<text text-anchor="middle" x="380.8" y="-238.3" font-family="Helvetica,Arial,sans-serif" font-size="14.00">12</text>
</g>
<!-- 10 -->
<g id="node4" class="node">
<title>10</title>
<ellipse fill="none" stroke="black" cx="470.39" cy="-265" rx="20.6" ry="20.6"/>
<text text-anchor="middle" x="470.39" y="-261.3" font-family="Helvetica,Arial,sans-serif" font-size="14.00">10</text>
</g>
<!-- 12&#45;&gt;10 -->
<g id="edge27" class="edge">
<title>12&#45;&gt;10</title>
<path fill="none" stroke="black" d="M404.55,-233.64C413.2,-231.68 423.02,-230.93 431.6,-234 437.43,-236.09 443.01,-239.51 448.01,-243.33"/>
<polygon fill="black" stroke="black" points="445.93,-246.15 455.82,-249.97 450.47,-240.83 445.93,-246.15"/>
<text text-anchor="middle" x="427.6" y="-237.8" font-family="Helvetica,Arial,sans-serif" font-size="14.00">3</text>
</g>
<!-- 7 -->
<g id="node3" class="node">
<title>7</title>
<ellipse fill="none" stroke="black" cx="294" cy="-242" rx="18" ry="18"/>
<text text-anchor="middle" x="294" y="-238.3" font-family="Helvetica,Arial,sans-serif" font-size="14.00">7</text>
</g>
<!-- 7&#45;&gt;12 -->
<g id="edge2" class="edge">
<title>7&#45;&gt;12</title>
<path fill="none" stroke="black" d="M312.16,-242C321.79,-242 334.16,-242 345.68,-242"/>
<polygon fill="black" stroke="black" points="345.92,-245.5 355.92,-242 345.92,-238.5 345.92,-245.5"/>
<text text-anchor="middle" x="334" y="-245.8" font-family="Helvetica,Arial,sans-serif" font-size="14.00">2</text>
</g>
<!-- 7&#45;&gt;10 -->
<g id="edge1" class="edge">
<title>7&#45;&gt;10</title>
<path fill="none" stroke="black" d="M306.5,-228.63C317.73,-216.69 336.01,-200.03 356,-193 376.79,-185.68 385.5,-183.95 405.6,-193 426.16,-202.25 442.77,-221.77 453.89,-238.15"/>
<polygon fill="black" stroke="black" points="451.13,-240.33 459.49,-246.84 457.02,-236.54 451.13,-240.33"/>
<text text-anchor="middle" x="380.8" y="-196.8" font-family="Helvetica,Arial,sans-serif" font-size="14.00">1</text>
</g>
<!-- 10&#45;&gt;12 -->
<g id="edge26" class="edge">
<title>10&#45;&gt;12</title>
<path fill="none" stroke="black" d="M450,-259.91C439.79,-257.23 426.98,-253.86 415.23,-250.78"/>
<polygon fill="black" stroke="black" points="415.83,-247.32 405.27,-248.16 414.06,-254.09 415.83,-247.32"/>
<text text-anchor="middle" x="427.6" y="-257.8" font-family="Helvetica,Arial,sans-serif" font-size="14.00">3</text>
</g>
<!-- 9 -->
<g id="node6" class="node">
<title>9</title>
<ellipse fill="none" stroke="black" cx="553.19" cy="-227" rx="18" ry="18"/>
<text text-anchor="middle" x="553.19" y="-223.3" font-family="Helvetica,Arial,sans-serif" font-size="14.00">9</text>
</g>
<!-- 10&#45;&gt;9 -->
<g id="edge24" class="edge">
<title>10&#45;&gt;9</title>
<path fill="none" stroke="black" d="M482.41,-247.38C488.99,-238.59 498.2,-228.82 509.19,-224 514.2,-221.8 519.86,-221.11 525.39,-221.23"/>
<polygon fill="black" stroke="black" points="525.33,-224.75 535.64,-222.31 526.06,-217.78 525.33,-224.75"/>
<text text-anchor="middle" x="513.19" y="-227.8" font-family="Helvetica,Arial,sans-serif" font-size="14.00">2</text>
</g>
<!-- 5 -->
<g id="node9" class="node">
<title>5</title>
<ellipse fill="none" stroke="black" cx="186" cy="-241" rx="18" ry="18"/>
<text text-anchor="middle" x="186" y="-237.3" font-family="Helvetica,Arial,sans-serif" font-size="14.00">5</text>
</g>
<!-- 10&#45;&gt;5 -->
<g id="edge25" class="edge">
<title>10&#45;&gt;5</title>
<path fill="none" stroke="black" d="M449.84,-269.5C443.99,-270.75 437.55,-272.03 431.6,-273 420.12,-274.87 417.21,-275.33 405.6,-276 323.82,-280.7 299.45,-286.64 222,-260 218.14,-258.67 214.2,-256.95 210.41,-255.07"/>
<polygon fill="black" stroke="black" points="211.95,-251.93 201.49,-250.27 208.64,-258.09 211.95,-251.93"/>
<text text-anchor="middle" x="334" y="-283.8" font-family="Helvetica,Arial,sans-serif" font-size="14.00">1</text>
</g>
<!-- 11 -->
<g id="node5" class="node">
<title>11</title>
<ellipse fill="none" stroke="black" cx="875.99" cy="-211" rx="20.6" ry="20.6"/>
<text text-anchor="middle" x="875.99" y="-207.3" font-family="Helvetica,Arial,sans-serif" font-size="14.00">11</text>
</g>
<!-- 11&#45;&gt;9 -->
<g id="edge3" class="edge">
<title>11&#45;&gt;9</title>
<path fill="none" stroke="black" d="M856.8,-219.3C840.69,-225.89 816.36,-234 794.19,-234 632.19,-234 632.19,-234 632.19,-234 615.23,-234 596.29,-232.34 581.31,-230.63"/>
<polygon fill="black" stroke="black" points="581.54,-227.14 571.2,-229.41 580.7,-234.09 581.54,-227.14"/>
<text text-anchor="middle" x="713.19" y="-237.8" font-family="Helvetica,Arial,sans-serif" font-size="14.00">2</text>
</g>
<!-- 9&#45;&gt;10 -->
<g id="edge15" class="edge">
<title>9&#45;&gt;10</title>
<path fill="none" stroke="black" d="M536.65,-234.31C525.97,-239.33 511.5,-246.14 498.91,-252.06"/>
<polygon fill="black" stroke="black" points="497.29,-248.95 489.73,-256.38 500.27,-255.29 497.29,-248.95"/>
<text text-anchor="middle" x="513.19" y="-250.8" font-family="Helvetica,Arial,sans-serif" font-size="14.00">2</text>
</g>
<!-- 6 -->
<g id="node10" class="node">
<title>6</title>
<ellipse fill="none" stroke="black" cx="633.19" cy="-150" rx="18" ry="18"/>
<text text-anchor="middle" x="633.19" y="-146.3" font-family="Helvetica,Arial,sans-serif" font-size="14.00">6</text>
</g>
<!-- 9&#45;&gt;6 -->
<g id="edge14" class="edge">
<title>9&#45;&gt;6</title>
<path fill="none" stroke="black" d="M566.72,-214.63C579.01,-202.5 597.92,-183.84 612.26,-169.67"/>
<polygon fill="black" stroke="black" points="615.03,-171.86 619.69,-162.34 610.12,-166.88 615.03,-171.86"/>
<text text-anchor="middle" x="593.19" y="-193.8" font-family="Helvetica,Arial,sans-serif" font-size="14.00">2</text>
</g>
<!-- 8 -->
<g id="node7" class="node">
<title>8</title>
<ellipse fill="none" stroke="black" cx="793.19" cy="-173" rx="18" ry="18"/>
<text text-anchor="middle" x="793.19" y="-169.3" font-family="Helvetica,Arial,sans-serif" font-size="14.00">8</text>
</g>
<!-- 8&#45;&gt;11 -->
<g id="edge4" class="edge">
<title>8&#45;&gt;11</title>
<path fill="none" stroke="black" d="M809.77,-180.33C820.51,-185.38 835.08,-192.23 847.72,-198.18"/>
<polygon fill="black" stroke="black" points="846.38,-201.41 856.92,-202.5 849.36,-195.08 846.38,-201.41"/>
<text text-anchor="middle" x="833.19" y="-196.8" font-family="Helvetica,Arial,sans-serif" font-size="14.00">2</text>
</g>
<!-- 1&#45;&gt;5 -->
<g id="edge5" class="edge">
<title>1&#45;&gt;5</title>
<path fill="none" stroke="black" d="M123.16,-218.8C133.62,-222.56 147.46,-227.52 159.4,-231.81"/>
<polygon fill="black" stroke="black" points="158.26,-235.12 168.86,-235.21 160.63,-228.53 158.26,-235.12"/>
<text text-anchor="middle" x="146" y="-230.8" font-family="Helvetica,Arial,sans-serif" font-size="14.00">2</text>
</g>
<!-- 1&#45;&gt;6 -->
<g id="edge6" class="edge">
<title>1&#45;&gt;6</title>
<path fill="none" stroke="black" d="M123.55,-208.35C184.62,-191.28 395.35,-133 426.6,-133 426.6,-133 426.6,-133 554.19,-133 571.87,-133 591.3,-137.22 606.34,-141.46"/>
<polygon fill="black" stroke="black" points="605.4,-144.83 615.98,-144.34 607.4,-138.12 605.4,-144.83"/>
<text text-anchor="middle" x="380.8" y="-149.8" font-family="Helvetica,Arial,sans-serif" font-size="14.00">2</text>
</g>
<!-- 4 -->
<g id="node11" class="node">
<title>4</title>
<ellipse fill="none" stroke="black" cx="240" cy="-368" rx="18" ry="18"/>
<text text-anchor="middle" x="240" y="-364.3" font-family="Helvetica,Arial,sans-serif" font-size="14.00">4</text>
</g>
<!-- 1&#45;&gt;4 -->
<g id="edge7" class="edge">
<title>1&#45;&gt;4</title>
<path fill="none" stroke="black" d="M118.25,-226.22C141.03,-252.96 192.79,-313.73 220.56,-346.35"/>
<polygon fill="black" stroke="black" points="218.25,-349.03 227.4,-354.38 223.58,-344.49 218.25,-349.03"/>
<text text-anchor="middle" x="146" y="-264.8" font-family="Helvetica,Arial,sans-serif" font-size="14.00">2</text>
</g>
<!-- 5&#45;&gt;7 -->
<g id="edge21" class="edge">
<title>5&#45;&gt;7</title>
<path fill="none" stroke="black" d="M204.03,-241.16C220.62,-241.32 246.12,-241.56 265.57,-241.74"/>
<polygon fill="black" stroke="black" points="265.63,-245.24 275.66,-241.84 265.69,-238.24 265.63,-245.24"/>
<text text-anchor="middle" x="240" y="-244.8" font-family="Helvetica,Arial,sans-serif" font-size="14.00">1</text>
</g>
<!-- 5&#45;&gt;10 -->
<g id="edge23" class="edge">
<title>5&#45;&gt;10</title>
<path fill="none" stroke="black" d="M193.34,-257.82C200.56,-275.99 212.59,-303.14 222,-309 301.07,-358.24 347.36,-348.78 431.6,-309 439.97,-305.04 447.21,-298.25 453.05,-291.17"/>
<polygon fill="black" stroke="black" points="456.06,-292.98 459.24,-282.87 450.45,-288.79 456.06,-292.98"/>
<text text-anchor="middle" x="334" y="-345.8" font-family="Helvetica,Arial,sans-serif" font-size="14.00">0</text>
</g>
<!-- 5&#45;&gt;2 -->
<g id="edge22" class="edge">
<title>5&#45;&gt;2</title>
<path fill="none" stroke="black" d="M189.77,-223.16C193.69,-203.55 202.67,-172.27 222,-153 233.85,-141.18 251.3,-134.21 265.93,-130.18"/>
<polygon fill="black" stroke="black" points="267.08,-133.5 275.97,-127.73 265.42,-126.7 267.08,-133.5"/>
<text text-anchor="middle" x="240" y="-156.8" font-family="Helvetica,Arial,sans-serif" font-size="14.00">1</text>
</g>
<!-- 6&#45;&gt;9 -->
<g id="edge13" class="edge">
<title>6&#45;&gt;9</title>
<path fill="none" stroke="black" d="M615.29,-153.85C606.74,-156.46 596.62,-160.62 589.19,-167 578.54,-176.15 570.34,-189.38 564.56,-201.09"/>
<polygon fill="black" stroke="black" points="561.26,-199.9 560.28,-210.45 567.63,-202.82 561.26,-199.9"/>
<text text-anchor="middle" x="593.19" y="-170.8" font-family="Helvetica,Arial,sans-serif" font-size="14.00">0</text>
</g>
<!-- 6&#45;&gt;3 -->
<g id="edge12" class="edge">
<title>6&#45;&gt;3</title>
<path fill="none" stroke="black" d="M643.07,-134.48C649.14,-125.51 658.1,-115.03 669.19,-110 674.17,-107.74 679.81,-106.94 685.33,-106.94"/>
<polygon fill="black" stroke="black" points="685.34,-110.45 695.59,-107.77 685.91,-103.47 685.34,-110.45"/>
<text text-anchor="middle" x="673.19" y="-113.8" font-family="Helvetica,Arial,sans-serif" font-size="14.00">2</text>
</g>
<!-- 4&#45;&gt;10 -->
<g id="edge8" class="edge">
<title>4&#45;&gt;10</title>
<path fill="none" stroke="black" d="M257.95,-371.23C293.78,-377.06 378.25,-385.43 431.6,-347 448.47,-334.84 458.01,-313.26 463.28,-295.28"/>
<polygon fill="black" stroke="black" points="466.7,-296.05 465.85,-285.49 459.93,-294.27 466.7,-296.05"/>
<text text-anchor="middle" x="334" y="-379.8" font-family="Helvetica,Arial,sans-serif" font-size="14.00">2</text>
</g>
<!-- 3&#45;&gt;0 -->
<g id="edge10" class="edge">
<title>3&#45;&gt;0</title>
<path fill="none" stroke="black" d="M702.52,-97.23C689.39,-79.18 664.1,-51 634.19,-51 105,-51 105,-51 105,-51 84.67,-51 63.91,-60.73 48.37,-70.35"/>
<polygon fill="black" stroke="black" points="46.31,-67.51 39.86,-75.92 50.15,-73.37 46.31,-67.51"/>
<text text-anchor="middle" x="380.8" y="-54.8" font-family="Helvetica,Arial,sans-serif" font-size="14.00">2</text>
</g>
<!-- 3&#45;&gt;8 -->
<g id="edge9" class="edge">
<title>3&#45;&gt;8</title>
<path fill="none" stroke="black" d="M727.78,-122.63C739.56,-131.84 756.83,-145.34 770.52,-156.05"/>
<polygon fill="black" stroke="black" points="768.47,-158.89 778.5,-162.29 772.78,-153.37 768.47,-158.89"/>
<text text-anchor="middle" x="753.19" y="-147.8" font-family="Helvetica,Arial,sans-serif" font-size="14.00">2</text>
</g>
<!-- 3&#45;&gt;6 -->
<g id="edge11" class="edge">
<title>3&#45;&gt;6</title>
<path fill="none" stroke="black" d="M696.81,-119.49C685.93,-124.8 671.09,-132.02 658.6,-138.11"/>
<polygon fill="black" stroke="black" points="657.06,-134.97 649.6,-142.49 660.13,-141.26 657.06,-134.97"/>
<text text-anchor="middle" x="673.19" y="-135.8" font-family="Helvetica,Arial,sans-serif" font-size="14.00">0</text>
</g>
<!-- 2&#45;&gt;0 -->
<g id="edge19" class="edge">
<title>2&#45;&gt;0</title>
<path fill="none" stroke="black" d="M275.76,-124.12C237.16,-121.94 141.01,-115.31 62,-100 58.99,-99.42 55.87,-98.71 52.77,-97.95"/>
<polygon fill="black" stroke="black" points="53.65,-94.56 43.09,-95.36 51.84,-101.32 53.65,-94.56"/>
<text text-anchor="middle" x="146" y="-117.8" font-family="Helvetica,Arial,sans-serif" font-size="14.00">1</text>
</g>
<!-- 2&#45;&gt;5 -->
<g id="edge20" class="edge">
<title>2&#45;&gt;5</title>
<path fill="none" stroke="black" d="M283.15,-139.44C276.43,-148.98 267.12,-161.6 258,-172 242.13,-190.1 222.37,-209.05 207.73,-222.5"/>
<polygon fill="black" stroke="black" points="205.22,-220.05 200.18,-229.37 209.93,-225.23 205.22,-220.05"/>
<text text-anchor="middle" x="240" y="-211.8" font-family="Helvetica,Arial,sans-serif" font-size="14.00">1</text>
</g>
</g>
</svg>
